<?xml version="1.0" encoding="UTF-8" standalone="no"?>
<!-- Created with Inkscape (http://www.inkscape.org/) -->

<svg
   xmlns:dc="http://purl.org/dc/elements/1.1/"
   xmlns:cc="http://creativecommons.org/ns#"
   xmlns:rdf="http://www.w3.org/1999/02/22-rdf-syntax-ns#"
   xmlns:svg="http://www.w3.org/2000/svg"
   xmlns="http://www.w3.org/2000/svg"
   xmlns:sodipodi="http://sodipodi.sourceforge.net/DTD/sodipodi-0.dtd"
   xmlns:inkscape="http://www.inkscape.org/namespaces/inkscape"
   id="svg3336"
   version="1.1"
   inkscape:version="0.91 r13725"
   width="137.7"
   height="171"
   viewBox="0 0 137.7 171"
   sodipodi:docname="conditioning.svg">
  <metadata
     id="metadata3342">
    <rdf:RDF>
      <cc:Work
         rdf:about="">
        <dc:format>image/svg+xml</dc:format>
        <dc:type
           rdf:resource="http://purl.org/dc/dcmitype/StillImage" />
        <dc:title></dc:title>
      </cc:Work>
    </rdf:RDF>
  </metadata>
  <defs
     id="defs3340" />
  <sodipodi:namedview
     pagecolor="#ffffff"
     bordercolor="#666666"
     borderopacity="1"
     objecttolerance="10"
     gridtolerance="10"
     guidetolerance="10"
     inkscape:pageopacity="0"
     inkscape:pageshadow="2"
     inkscape:window-width="1536"
     inkscape:window-height="801"
     id="namedview3338"
     showgrid="false"
     inkscape:zoom="3.7076023"
     inkscape:cx="68.849998"
     inkscape:cy="176.73963"
     inkscape:window-x="-8"
     inkscape:window-y="-8"
     inkscape:window-maximized="1"
     inkscape:current-layer="svg3336" />
  <path
     style="fill:#000000"
     d="m 40.225362,168.50349 c -0.915579,-0.0837 -1.311156,-0.28298 -1.533762,-0.77259 -0.485793,-1.06846 0.260163,-3.37 1.508691,-4.65484 0.692757,-0.7129 1.360482,-1.90293 1.882011,-3.35414 0.792231,-2.20446 2.55189,-4.80078 3.25374,-4.80078 0.760878,0 0.975618,-2.84676 0.58194,-7.71461 -0.21063,-2.60447 -0.387732,-6.82789 -0.393558,-9.38539 -0.01158,-5.08196 0.176535,-6.16419 2.216211,-12.75 0.789936,-2.55058 1.163925,-4.395 1.282959,-6.32723 0.197901,-3.21248 -0.07474,-5.52277 -0.65175,-5.52277 -0.644898,0 -2.217474,-2.00115 -2.411403,-3.06859 -0.215385,-1.18552 0.845532,-7.57467 1.519698,-9.15207 0.301881,-0.70633 0.58485,-2.702513 0.755469,-5.329343 0.150042,-2.31 0.386997,-4.98824 0.526572,-5.95164 0.139575,-0.96341 0.192897,-2.38518 0.118497,-3.15949 -0.123477,-1.28505 -0.01401,-1.58498 1.255248,-3.43891 1.894812,-2.76765 2.454702,-4.21303 2.010033,-5.18897 -0.298743,-0.65567 -0.199368,-1.00927 0.771609,-2.74554 1.10037,-1.96764 1.115613,-2.04069 1.200846,-5.7542 0.04748,-2.06869 0.149397,-3.92691 0.226482,-4.12939 0.07708,-0.20247 0.155007,-1.82247 0.173163,-3.6 0.03595,-3.5202 -0.363096,-6.90786 -1.024137,-8.69423 -0.231537,-0.6257 -0.585312,-1.61013 -0.786168,-2.18763 -0.200856,-0.5775 -0.552711,-1.43219 -0.781899,-1.89931 -0.229188,-0.46712 -0.416706,-1.04087 -0.416706,-1.275 0,-0.97238 -0.526386,-0.31162 -1.033602,1.29746 -0.675969,2.14442 -2.974782,4.50771 -7.010553,7.20719 -2.902212,1.94126 -4.225857,2.46525 -6.234348,2.46798 -1.533222,0.002 -1.864611,-0.35123 -3.387162,-3.61137 -1.779066,-3.80938 -2.33745,-5.73331 -3.364574,-11.59273 -0.515248,-2.93932 -1.394227,-6.94127 -1.953287,-8.89321 -0.559061,-1.95195 -1.016474,-3.8757 -1.016474,-4.275 0,-0.64701 -0.130575,-0.72601 -1.2,-0.72601 l -1.2,0 0,5.33325 c 0,6.62279 -0.0195,6.66675 -2.957011,6.66675 -2.342287,0 -2.742989,-0.27171 -2.742989,-1.86 0,-1.1476 -0.387918,-1.52539 -0.708488,-0.69 -0.226806,0.59104 -3.563824,0.63582 -4.046448,0.0543 -0.196405,-0.23666 -0.361896,-2.1961 -0.411733,-4.875 l -0.08333,-4.4793 -5.6442812,-0.0817 -5.644281,-0.0817 0.09428,-0.81831 0.09428,-0.81831 5.625,-0.0816 5.6250002,-0.0816 0,-4.58338 c 0,-3.16485 0.111418,-4.6948 0.36,-4.94338 0.524406,-0.52441 3.398265,-0.45888 3.947143,0.09 0.674324,0.67432 0.792857,0.56378 0.792857,-0.73945 0,-1.46483 0.529487,-1.81055 2.772939,-1.81055 2.769444,0 2.762528,-0.0155 2.870614,6.42525 l 0.09355,5.57475 1.409283,0 c 1.084382,0 1.49567,-0.13833 1.78399,-0.6 0.234022,-0.37473 0.699608,-0.6 1.240067,-0.6 0.475949,0 0.935307,-0.18228 1.020796,-0.40506 0.20923,-0.54524 2.887882,-0.83518 4.247578,-0.45975 0.694899,0.19188 1.184949,0.55129 1.352487,0.99194 0.144501,0.38007 0.486615,0.77695 0.760248,0.88195 0.273638,0.10501 5.394014,0.19092 11.378618,0.19092 10.803597,0 10.888272,-0.005 11.887815,-0.67843 2.381658,-1.605 3.669282,-4.55693 3.133854,-7.18449 -0.52692,-2.58579 -0.769524,-3.14883 -1.50024,-3.48177 -0.438735,-0.1999 -0.751599,-0.59309 -0.751599,-0.94457 0,-0.33117 -0.161385,-1.20553 -0.358635,-1.94302 -0.311529,-1.16478 -0.291825,-1.41472 0.15,-1.90293 0.27975,-0.30912 0.508635,-0.94535 0.508635,-1.41384 0,-0.4684905 0.153267,-1.7319202 0.340593,-2.8076252 0.292161,-1.677712 0.530946,-2.159328 1.679274,-3.386985 1.974252,-2.110635 3.488478,-2.746749 6.211161,-2.609259 1.96827,0.09939 2.383074,0.232593 3.813723,1.224652 2.317986,1.607365 2.906103,2.63871 3.311661,5.807477 0.188004,1.4689297 0.538863,2.9023102 0.779688,3.1852802 0.292806,0.34404 0.367917,0.79128 0.226722,1.35 -0.11613,0.45953 -0.282339,1.34582 -0.369354,1.96954 -0.116886,0.83781 -0.367761,1.2424 -0.96042,1.54888 -0.645411,0.33375 -0.873633,0.76064 -1.16763,2.18402 -0.681489,3.29946 -0.320742,5.16666 1.357002,7.02372 1.910413,2.1146 1.547163,2.05935 13.538146,2.05935 5.934699,0 11.014247,-0.0859 11.287887,-0.19092 0.27363,-0.105 0.61574,-0.50188 0.76024,-0.88195 0.16754,-0.44065 0.65759,-0.80006 1.35249,-0.99194 1.3597,-0.37543 4.03835,-0.0855 4.24758,0.45975 0.0855,0.22278 0.54485,0.40506 1.02079,0.40506 0.54046,0 1.00605,0.22527 1.24007,0.6 0.28944,0.46347 0.69961,0.6 1.80254,0.6 l 1.42784,0 0,-5.4 c 0,-6.43892 0.07,-6.6 2.86972,-6.6 2.30203,0 2.83028,0.33792 2.83028,1.81055 0,1.30323 0.11853,1.41377 0.79286,0.73945 0.5208,-0.52081 2.85134,-0.60801 3.72686,-0.13945 0.53525,0.28646 0.58028,0.67008 0.58028,4.94338 l 0,4.63283 5.625,0.0816 5.625,0.0816 0.0949,0.825 0.0949,0.825 -5.71992,0 -5.71993,0 0,4.59 c 0,3.17 -0.11137,4.70137 -0.36,4.95 -0.43424,0.43424 -3.7281,0.48377 -3.99,0.06 -0.37822,-0.61197 -0.75,-0.26993 -0.75,0.69 0,1.43043 -0.44846,1.71 -2.74299,1.71 -2.93751,0 -2.95701,-0.044 -2.95701,-6.66675 l 0,-5.33325 -1.2,0 c -1.04716,0 -1.2,0.0866 -1.2,0.6802 0,0.37411 -0.45544,2.23036 -1.0121,4.125 -0.55664,1.89464 -1.30986,5.1998 -1.67381,7.3448 -0.36395,2.145 -0.85412,4.82299 -1.08927,5.9511 -0.53471,2.5652 -2.53471,7.72397 -3.71765,9.58928 -0.83759,1.32074 -0.97477,1.40951 -2.17556,1.40795 -0.70489,-9e-4 -1.788948,-0.14257 -2.409034,-0.31477 -1.40832,-0.39112 -5.96085,-3.41441 -8.138781,-5.40492 -1.601478,-1.46366 -3.183747,-4.02936 -3.183747,-5.16255 0,-0.32621 -0.158907,-0.50783 -0.375,-0.42859 -0.20625,0.0756 -0.338781,0.29678 -0.294516,0.49145 0.04427,0.19468 -0.124482,0.64659 -0.375,1.00426 -0.250515,0.35766 -0.455484,0.83016 -0.455484,1.05 0,0.21984 -0.255201,0.96605 -0.567111,1.65825 -0.522912,1.16045 -0.804075,2.28844 -1.472763,5.90854 -0.137151,0.7425 -0.134076,3.24 0.0068,5.55 0.140907,2.31 0.2475,5.25263 0.236874,6.53918 -0.02259,2.73508 0.350844,4.33412 1.400487,5.99686 0.598809,0.94858 0.720582,1.43781 0.578709,2.32503 -0.217692,1.36136 0.299817,2.70759 2.007465,5.22213 1.184619,1.74436 1.236264,1.91847 1.295373,4.3668 0.03386,1.4025 0.207375,3.4275 0.385584,4.5 0.178209,1.0725 0.325038,3.05958 0.326286,4.41573 0.0015,1.78989 0.200976,3.074473 0.727239,4.686633 0.398736,1.2215 0.938763,3.65994 1.200063,5.41876 0.42954,2.89129 0.430566,3.30441 0.01071,4.30928 -0.52512,1.25679 -1.559337,2.4696 -2.10594,2.4696 -0.585672,0 -0.729951,0.76349 -0.727461,3.84954 0.0027,3.16542 0.415596,5.18525 2.249517,11.00046 1.073727,3.40469 1.142292,3.86041 1.263876,8.4 0.07509,2.80363 -0.05298,6.99894 -0.30792,10.08707 -0.451388,5.46812 -0.26246,8.36293 0.545842,8.36293 0.712284,0 2.436003,2.55986 3.254736,4.83355 0.518241,1.43919 1.163064,2.60392 1.743915,3.15 1.464393,1.37671 2.239651,3.98607 1.518143,5.10969 -0.12123,0.18879 -1.242945,0.43867 -2.492711,0.55531 -2.95404,0.27569 -5.702772,-0.41983 -6.591444,-1.66785 -0.34056,-0.47827 -1.009116,-0.92412 -1.565349,-1.04389 -0.533997,-0.11499 -1.328607,-0.39177 -1.7658,-0.61508 l -0.794895,-0.406 0.135882,-3.38287 c 0.07474,-1.86057 0.204672,-4.7441 0.288747,-6.40783 0.207252,-4.10137 -1.031862,-10.44561 -2.812575,-14.40033 -1.771557,-3.93438 -1.942575,-4.82077 -1.914018,-9.92034 0.02445,-4.36507 -0.0059,-4.60342 -0.764157,-6 -1.569315,-2.89046 -1.896726,-3.70184 -2.60499,-6.45564 l -0.719818,-2.79872 -1.309641,-0.42509 c -1.4673,-0.47626 -1.941726,-0.96111 -2.226,-2.27491 -0.107106,-0.495 -0.839451,-2.4525 -1.627434,-4.35 -0.787983,-1.8975 -1.672959,-4.125 -1.966608,-4.95 -0.293652,-0.825 -0.777927,-1.76149 -1.076169,-2.08108 -0.523233,-0.56069 -0.563223,-0.5621 -1.139982,-0.0401 -0.328752,0.29752 -0.892413,1.4365 -1.252584,2.53108 -0.360168,1.09458 -1.160631,3.13764 -1.778805,4.54014 -0.618171,1.4025 -1.349175,3.24836 -1.624446,4.10191 -0.572007,1.77366 -0.811533,2.02851 -2.407809,2.56193 -1.139571,0.3808 -1.165395,0.42366 -1.859157,3.08616 -0.386946,1.485 -1.310385,3.92589 -2.052093,5.4242 l -1.348569,2.72416 -0.0098,4.7758 c -0.01059,5.16937 0.0045,5.0977 -2.176902,10.3258 -0.585189,1.4025 -1.358631,3.9675 -1.718763,5.7 -0.789789,3.79948 -1.221519,9.49051 -0.785163,10.35 0.167535,0.33 0.332727,2.12239 0.367092,3.98308 l 0.06248,3.38308 -0.794472,0.40579 c -0.436962,0.22318 -1.231383,0.49987 -1.76538,0.61486 -0.556233,0.11977 -1.224789,0.56562 -1.565349,1.04389 -0.997548,1.40092 -3.713265,1.96599 -7.697532,1.60165 z M 101.23027,42.397157 c 1.5375,-2.29524 2.5992,-5.06979 2.94562,-7.69777 l 0.18827,-1.42825 -1.95431,-0.96076 c -1.31023,-0.64413 -2.08679,-1.23735 -2.35626,-1.8 l -0.401948,-0.83924 -5.471246,-0.0818 c -3.009186,-0.045 -5.471247,-0.0332 -5.471247,0.0262 0,0.0594 0.513324,0.64756 1.140723,1.30709 0.627396,0.65953 1.710489,2.29431 2.40687,3.63284 1.013808,1.94867 1.60779,2.69337 2.980395,3.73665 2.082921,1.58318 2.957949,2.82782 3.592403,5.10982 0.265476,0.95487 0.571512,1.63106 0.680082,1.50266 0.10857,-0.1284 0.882858,-1.25675 1.720648,-2.50744 z m -61.465747,0.39898 c 0.821196,-2.40486 1.162218,-2.85676 3.402954,-4.50936 1.391661,-1.02639 1.944849,-1.71456 2.984277,-3.71247 0.701772,-1.34889 1.789275,-2.99215 2.416671,-3.65168 0.627399,-0.65953 1.140723,-1.24468 1.140723,-1.30032 0,-0.0556 -2.481123,-0.10117 -5.513604,-0.10117 l -5.513604,0 -0.385092,0.92969 c -0.289428,0.69875 -0.857409,1.15531 -2.286396,1.8379 -2.198148,1.05 -2.234754,1.17529 -1.338783,4.58241 0.705663,2.68341 1.261197,3.97612 2.191707,5.1 0.409833,0.495 0.999399,1.33875 1.310145,1.875 0.310746,0.53625 0.64026,0.975 0.732255,0.975 0.09199,0 0.478431,-0.91125 0.858747,-2.025 z"
     id="path4141"
     inkscape:connector-curvature="0" />
</svg>
