<?xml version="1.0" encoding="UTF-8" standalone="no"?>
<!-- Created with Inkscape (http://www.inkscape.org/) -->
<svg id="svg3336" xmlns:rdf="http://www.w3.org/1999/02/22-rdf-syntax-ns#" xmlns="http://www.w3.org/2000/svg" height="456.6" viewBox="0 0 591 456.60001" width="591" version="1.1" xmlns:cc="http://creativecommons.org/ns#" xmlns:dc="http://purl.org/dc/elements/1.1/">
 <metadata id="metadata3342">
  <rdf:RDF>
   <cc:Work rdf:about="">
    <dc:format>image/svg+xml</dc:format>
    <dc:type rdf:resource="http://purl.org/dc/dcmitype/StillImage"/>
    <dc:title/>
   </cc:Work>
  </rdf:RDF>
 </metadata>
 <path id="path7229" d="m307.35 409.26c-0.50176-1.2158-0.68448-2.6018-0.43092-3.2686 0.14928-0.39264 1.3204-1.8287 2.6024-3.1913 2.1854-2.3228 4.0239-5.0721 3.645-5.451-0.0924-0.0924-1.446 0.42924-3.008 1.1592-3.3696 1.5746-8.3727 3.2904-10.964 3.7603-2.1038 0.38136-6.8431 0.49929-7.8044 0.19416-0.77387-0.24561-1.2872-1.6042-1.2872-3.407 0-1.1553 0.14884-1.4761 1.0811-2.33 0.5946-0.54462 1.853-1.4016 2.7963-1.9045 1.3966-0.74436 1.872-1.2088 2.5589-2.5002 0.46399-0.87231 1.4253-2.1935 2.1364-2.936 0.84849-0.88608 1.6608-2.2263 2.3638-3.9 0.58909-1.4025 1.54-3.3098 2.1132-4.2385 1.094-1.7726 1.7492-4.0898 2.3619-8.3525 0.35508-2.4706 0.3966-2.5624 1.2012-2.6562l0.8334-0.0972-0.0295-3.3528c-0.0162-1.8441 0.0567-4.5127 0.16207-5.9303 0.14462-1.946 0.0727-2.9862-0.29358-4.2462-0.5787-1.9906-0.6018-2.7112-0.12882-4.0192 0.41109-1.1368-0.0538-4.2629-1.5675-10.541-1.0827-4.4906-2.1018-10.335-3.1346-17.975-0.67382-4.9849-0.91651-6.0577-1.8058-7.9823-0.56502-1.2229-1.2802-3.1466-1.5893-4.2749-0.30908-1.1283-0.7526-2.1127-0.98562-2.1876-0.62495-0.20091-0.86391-0.68163-0.86906-1.7482-0.003-0.58527-0.30859-1.3132-0.79382-1.8899-0.63004-0.74877-0.83749-1.4038-1.0286-3.248-0.14974-1.4452-0.5888-3.1507-1.1727-4.5554-1.7928-4.3126-1.8962-4.7736-1.9585-8.7278-0.065-4.1276-0.30348-4.8918-2.6991-8.6489-1.6859-2.6441-2.4075-5.1592-2.3103-8.053 0.12809-3.8139 0.14132-6.3681 0.0423-8.175-0.0716-1.3071 0.13913-2.2735 1.014-4.65 0.60739-1.65 1.3949-3.5781 1.75-4.2846l0.64566-1.2846-0.69749-1.4892c-0.61523-1.3135-0.65583-1.622-0.34419-2.6154 0.34287-1.093 0.28564-1.2593-1.938-5.6326-2.2313-4.3882-2.2978-4.5822-2.5353-7.3972-0.21371-2.5328-0.39856-3.1984-1.4927-5.3746-1.5436-3.0701-2.6859-7.428-2.6859-10.247 0-1.1541 0.2162-4.2755 0.48045-6.9365 0.2974-2.9948 0.42333-6.2099 0.33052-8.4382-0.094-2.2572 0.0161-4.9988 0.2952-7.35 0.30946-2.607 0.4547-7.0876 0.47652-14.7l0.0314-10.95-1.4271-4.8c-0.78494-2.64-2.0998-6.1925-2.9218-7.8944-2.0243-4.1908-2.0753-4.3462-2.3774-7.2478-0.2331-2.2389-0.47996-2.9728-2.0687-6.15-1.9811-3.962-2.0714-4.3341-3.0243-12.458-0.69609-5.9345-1.9132-13.663-2.5749-16.35-0.74116-3.0098-2.8124-8.4185-3.8194-9.9736-0.5227-0.80719-1.6234-2.2958-2.4461-3.3079l-1.4957-1.8403-0.64885 0.60957c-0.92774 0.87156-0.99456 1.5942-0.6901 7.4622 0.20396 3.9309 0.17183 6.1922-0.12786 9-0.22014 2.0625-0.42589 5.4375-0.45723 7.5-0.0634 4.1734-0.35153 6.4454-1.2892 10.167-0.58235 2.3112-0.60598 2.7766-0.28931 5.7 0.62117 5.7345 0.37389 8.8554-1.5881 20.042-1.228 7.0017-1.2805 9.5745-0.32021 15.684 0.54997 3.4992 0.97116 5.3507 1.2663 5.5665 0.24321 0.17783 0.4346 0.6534 0.42532 1.0568-0.0292 1.2676-0.59789 6.9422-0.9154 9.1335-0.16736 1.155-0.30871 3.0586-0.3141 4.2302-0.005 1.1716-0.15921 2.5588-0.34179 3.0825-0.42794 1.2276-0.14305 2.6956 0.7899 4.0704 0.43146 0.6358 0.74207 1.5228 0.74207 2.1191 0 0.56407 0.28219 1.7393 0.62709 2.6117 0.98281 2.4858 1.5182 5.7166 1.1313 6.8266-0.26721 0.76652-0.20531 1.247 0.35291 2.7397 0.62232 1.664 0.63797 1.8492 0.19392 2.2932-0.40475 0.40475-0.61381 0.42345-1.2899 0.11539-0.73467-0.33474-0.89209-0.28508-1.7586 0.55477l-0.9517 0.92243 0.3787 1.8377c0.39721 1.9275 0.71958 2.3342 1.8562 2.3418 2.2776 0.0152 4.8363 3.2591 4.8545 6.1546 0.004 0.66 0.21999 2.4146 0.47964 3.899 0.53765 3.0738 0.28447 6.5696-0.82195 11.349-0.36478 1.5759-0.52854 2.973-0.40436 3.45 0.11478 0.44085 0.3025 2.6241 0.41716 4.8516 0.19044 3.6998 0.29031 4.2209 1.155 6.0265 1.3689 2.8585 2.1711 6.2172 2.4657 10.324 0.16513 2.3015 0.48485 4.2392 0.88639 5.372 0.71154 2.0073 0.78036 2.7485 0.28373 3.0554-0.18941 0.11706-1.5718 0.3261-3.072 0.46452-1.8493 0.17064-2.9701 0.42831-3.4806 0.80013-0.41414 0.30165-1.0072 0.64326-1.318 0.75912-0.52935 0.19737-0.55482 0.49878-0.40384 4.7798 0.13869 3.9328 0.36969 5.5718 1.6588 11.769 0.82369 3.96 1.6467 8.4265 1.829 9.9255 0.47258 3.8873 0.9168 14.223 0.92451 21.512 0.006 5.8867 0.0425 6.2857 0.64518 7.1009 0.46417 0.62781 0.58275 1.0862 0.43417 1.6781-0.11242 0.44793-0.033 1.7413 0.17652 2.8741 0.32223 1.7423 0.47492 2.0606 0.99083 2.0654 0.46707 0.005 0.83423 0.51504 1.5678 2.1806 0.52684 1.1962 1.0973 2.7799 1.2677 3.5193 0.41388 1.7962 0.40588 6.3888-0.0148 8.4835-0.27953 1.3918-0.25313 2.0318 0.15 3.6367 0.80865 3.2192 0.51609 6.5134-0.80529 9.0674-2.1686 4.1914-8.9255 5.9707-12.203 3.2132-2.1214-1.7851-2.3993-4.1714-1.0844-9.3107 0.96259-3.7622 0.96675-4.8838 0.0315-8.4956-1.1008-4.2514-0.91242-7.9723 0.45598-9.0045 0.53059-0.40023 0.60697-0.6714 0.43993-1.5618-0.16012-0.8535-0.0777-1.2019 0.39636-1.676 0.88583-0.88581 1.0666-1.7508 0.52695-2.5213-0.54576-0.77919-0.59909-1.8743-0.15352-3.1525 0.35399-1.0154-0.0443-3.5384-2.9021-18.384-2.5098-13.038-3.6036-17.645-5.2531-22.128-1.1039-2.9999-1.583-4.8032-1.7787-6.695-0.14734-1.4241-0.5782-3.5801-0.95746-4.7911-0.62159-1.9847-0.78124-2.2256-1.6193-2.4427-1.3096-0.33936-1.6895-0.88233-1.312-1.8754 0.16834-0.44277 0.3907-1.7156 0.49414-2.8285 0.20869-2.2454-0.35941-3.9404-1.32-3.9383-0.7668 0.003-2.1077 0.92673-4.0203 2.7735-1.303 1.2581-1.7258 1.8829-1.8 2.6599-0.0853 0.89229-0.21049 1.0265-1.0321 1.1065l-0.93507 0.091-0.20766 2.909c-0.33693 4.7199-0.85452 6.5969-2.889 10.477l-1.8521 3.532 0.18902 3.9c0.22365 4.6149-0.23959 8.2007-1.5951 12.347-1.6503 5.0485-2.5822 9.3895-3.323 15.481-0.24593 2.022-0.23422 2.7832 0.0507 3.3 0.23082 0.41862 0.37546 1.9719 0.38383 4.1218 0.0126 3.2411 0.0625 3.5227 0.8237 4.65 1.0624 1.5734 1.4235 3.2751 1.4323 6.75 0.005 2.15 0.16667 3.2945 0.65624 4.6597 0.97424 2.7168 0.39589 4.0394-2.2988 5.2569-2.9325 1.325-10.535 1.577-13.287 0.4404-2.8582-1.1806-2.8946-4.4485-0.11103-9.9628 0.92018-1.8229 0.92788-1.8742 0.47188-3.1486-0.39621-1.1073-0.56356-3.8789-0.38617-6.3956 0.0232-0.33-0.0573-1.1531-0.17896-1.8292-0.1987-1.104-0.12653-1.3371 0.7084-2.288 0.51131-0.58233 1.3015-1.2151 1.756-1.4061 0.56831-0.23886 1.0377-0.83592 1.5032-1.912 0.64962-1.5018 0.67696-1.9082 0.68072-10.115 0.005-10.579 0.37985-17.61 1.2088-22.666 0.35018-2.136 0.74755-5.9086 0.88305-8.3836 0.14357-2.6225 0.44542-5.1144 0.72349-5.9727 0.7526-2.3229 0.65138-3.002-0.49786-3.3403l-0.975-0.28704-0.1972-2.5861c-0.10845-1.4224-0.39722-2.9749-0.6417-3.45-1.2148-2.361-1.7665-5.0791-2.0018-9.8639-0.19309-3.9252-0.37481-5.21-0.99713-7.05-0.9747-2.8818-1.2887-6.2488-0.76936-8.25 0.25078-0.96638 0.39246-3.5278 0.39825-7.2l0.009-5.7 0.94192-1.4316c0.51806-0.78737 1.0324-2.0352 1.1431-2.773 0.17302-1.1538 0.38743-1.4696 1.5327-2.2576 0.73234-0.50386 1.5377-1.3148 1.7896-1.802 0.25196-0.48722 0.57927-0.88585 0.72737-0.88585 0.14811 0 0.68464-0.3495 1.1923-0.77667 0.81689-0.68737 0.92302-0.95949 0.92302-2.3666 0-1.5706-0.0124-1.5923-1.0199-1.7813-1.3015-0.24415-1.5573-0.58645-1.813-2.4254-0.11469-0.825-0.46922-2.358-0.78784-3.4066-0.35258-1.1604-0.58104-2.8042-0.58373-4.2-0.003-1.4671-0.16293-2.5636-0.44438-3.0434-2.0084-3.4236-2.3891-4.5986-2.4493-7.558l-0.0592-2.908-1.5262-1.9912c-0.83939-1.0952-1.7552-2.419-2.0352-2.942-0.60753-1.1348-1.0173-4.0932-1.1105-8.0175-0.0511-2.1493-0.20576-3.0998-0.61814-3.7979l-0.55004-0.93114 0.99496-1.5505c0.665-1.0363 1.0422-2.0422 1.1374-3.0334 0.0784-0.81558 0.24593-1.5468 0.37237-1.625 0.12645-0.0781-0.106-1.1891-0.51655-2.4687-0.89433-2.7876-1.3152-8.594-1.43-19.727-0.0709-6.8777-0.0426-7.293 0.63244-9.2773 0.38865-1.1425 0.70663-2.5202 0.70663-3.0614 0-1.073 1.7704-6.222 3.2875-9.5613 1.6228-3.5719 3.8334-7.1827 6.4281-10.5 3.2574-4.1641 4.8672-6.9181 7.1128-12.168 1.3598-3.179 1.9187-4.8991 2.1209-6.5279 0.18357-1.4786 0.62147-2.9326 1.3213-4.3873 0.57573-1.1967 1.127-2.8527 1.2249-3.68 0.17057-1.4402 0.79499-2.4476 3.7359-6.0274 0.39122-0.47622 1.1685 0.0447 1.1685 0.78303 0 0.34581 0.22151 0.25716 0.84142-0.33674 1.0324-0.9891 1.8586-1.0579 1.8586-0.15475 0 0.35826-0.18946 0.86451-0.42103 1.125-0.75535 0.84972-3.479 4.9233-3.479 5.2034 0 0.1501 0.86794-0.34644 1.9288-1.1034 1.0608-0.75699 2.0733-1.3763 2.25-1.3763 0.62461 0 0.3101 1.4922-0.51947 2.4646-1.4042 1.6459-3.1402 4.1545-2.9835 4.3112 0.0812 0.0812 0.7735-0.33017 1.5385-0.9141 1.6795-1.282 2.2857-1.3542 2.2857-0.27222 0 0.7822-1.0312 1.9549-3.6731 4.1768-1.0518 0.88462-1.0894 0.98526-1.0894 2.9144 0 2.494-0.67862 4.1124-2.8471 6.7901-2.8515 3.521-5.1076 8.3098-6.8042 14.443-1.2703 4.5917-2.5927 7.9361-5.2786 13.35l-2.2391 4.513 0.92076 2.2995c0.50641 1.2647 1.0029 2.7101 1.1033 3.212 0.27327 1.3664 0.53211 1.1132 0.91348-0.89359 0.4258-2.2406 1.8801-5.399 3.2632-7.0869 0.65784-0.8028 1.7702-1.6334 2.9952-2.2364 1.7006-0.83719 2.2639-0.96137 4.4233-0.97502 1.9841-0.0125 2.7545 0.11987 3.8868 0.668 1.8064 0.87444 4.0152 3.3197 4.4626 4.9401 0.18925 0.68553 0.59582 2.1044 0.90348 3.153 0.75044 2.5578 0.71204 3.2168-0.34061 5.8457-1.0249 2.5596-0.99803 2.3827-0.58702 3.8626 0.60795 2.189 1.7842 2.5117 2.3962 0.6573 0.18602-0.56362 0.85047-1.8004 1.4766-2.7485 1.1294-1.7101 1.14-1.7543 1.3425-5.6155 0.25499-4.8617 0.88191-9.9889 1.5247-12.469 0.27063-1.0444 1.0513-2.918 1.7349-4.1635l1.2428-2.2645 0.19898-5.7131c0.17573-5.0456 0.30998-6.1453 1.1492-9.4125 1.5967-6.2166 2.4596-12 2.3775-15.935-0.0396-1.8975 0.0282-3.7458 0.1505-4.1074 0.12233-0.36154 0.88894-1.1362 1.7036-1.7214 0.81462-0.58525 2.2593-2.0196 3.2104-3.1874 1.1771-1.4453 1.9979-2.1779 2.5707-2.2943 0.61488-0.12498 0.79203-0.29983 0.6579-0.64936-0.35276-0.91928-0.83328-5.0886-0.64348-5.5833 0.11637-0.30324 0.44696-0.46125 0.84292-0.40288 0.54244 0.08 0.71661 0.4224 1.0407 2.046 0.73009 3.6576 1.0422 4.5 1.6672 4.5 0.3183 0 0.49882-0.12928 0.40116-0.2873-0.31981-0.51746-0.25787-8.4327 0.0685-8.7591 0.17043-0.17043 0.56047-0.26221 0.86674-0.20396 0.44927 0.0854 0.62556 0.56912 0.91236 2.5031 0.19551 1.3185 0.36426 3.241 0.375 4.2722 0.0154 1.4752 0.11746 1.875 0.47892 1.875 0.57258 0 0.59715-0.089 1.0352-3.75 0.47236-3.9481 0.52337-4.104 1.3062-3.9925 0.61438 0.0875 0.65384 0.26902 0.73502 3.3808 0.0625 2.3945 0.20714 3.4224 0.53223 3.7816 0.26169 0.28916 0.36159 0.71444 0.24141 1.0276-0.14451 0.37657-0.0832 0.49371 0.20769 0.39675 0.22701-0.0757 0.65835-0.97159 0.95854-1.9909 0.44548-1.5127 0.66209-1.8534 1.1784-1.8534 0.59627 0 0.62235 0.11035 0.45348 1.9187-0.16176 1.7323-0.12225 1.9336 0.40662 2.0719 0.854 0.22333 0.71616 1.0698-0.23921 1.4689l-0.825 0.34468 1.05 0.17289c1.5368 0.25304 1.3628 1.1137-0.32811 1.6238-0.37945 0.11447-0.51938 0.78444-0.6781 3.2466-0.10999 1.7063-0.34617 3.8533-0.52483 4.7711-0.29239 1.5019-0.24823 1.8916 0.44188 3.9 0.4217 1.2272 0.92214 3.2438 1.1121 4.4814 0.44693 2.9117 1.2924 5.2187 4.3977 12 6.1772 13.49 6.2459 13.711 7.1432 23.016 0.28718 2.978 0.75114 6.027 1.0504 6.903 0.29485 0.86297 1.499 3.1962 2.6758 5.185l2.1398 3.616 0.7755-0.61001c0.42653-0.33551 1.0188-0.61002 1.316-0.61002 0.39055 0 0.56662-0.27053 0.63454-0.975l0.094-0.975 2.4489-0.15c2.289-0.1402 2.4938-0.20876 3.1371-1.05 1.1463-1.499 2.6637-2.8385 3.4349-3.032 0.40103-0.10065 0.7288-0.33711 0.72838-0.52548-0.002-0.7842-2.2718-4.0598-3.8927-5.6171l-1.743-1.6746-0.1182-2.6754c-0.0918-2.0785-0.30467-3.1104-0.95392-4.6254-1.1218-2.6175-1.1277-2.85-0.0728-2.85 0.7404 0 1.0289 0.26511 1.9556 1.797 0.59785 0.98832 1.313 1.8405 1.5891 1.8936 1.095 0.21087 2.6002-4.782 2.0428-6.7756-0.56651-2.0259-2.4188-4.3308-4.2193-5.2502-2.7411-1.3997-3.1159-2.3176-0.94391-2.3118 1.1279 0.003 4.0172 1.1659 4.3882 1.7662 0.35189 0.56937 0.76906 0.36193 0.76906-0.38243 0-0.83352 0.65985-1.4788 1.3666-1.3365 0.27249 0.0549 0.73991 0.74494 1.0387 1.5335 0.29881 0.78854 0.9887 2.1278 1.5331 2.9762 0.87772 1.3678 0.99537 1.7999 1.0391 3.8163 0.0271 1.2506 0.20077 2.6539 0.38591 3.1184 0.45687 1.1463 0.42505 2.0974-0.14938 4.4649-0.36975 1.5239-0.43555 2.6339-0.27229 4.5938 0.18976 2.278 0.31528 2.6867 1.059 3.4474 0.46403 0.4747 0.9309 1.2602 1.0375 1.7455 0.10659 0.48532 1.0979 1.9596 2.2028 3.2763 1.105 1.3166 3.428 4.0808 5.1622 6.1425 1.7343 2.0617 4.0616 5.0168 5.1717 6.5668 2.1577 3.0126 4.725 7.8197 4.725 8.8472 0 0.34337 0.68745 2.0298 1.5277 3.7477 2.6188 5.3543 2.629 7.589 0.0459 10.111-0.89802 0.87675-2.0806 2.1808-2.6281 2.898-0.93654 1.227-0.97779 1.381-0.69855 2.6092 0.53418 2.3496-0.2502 6.3922-1.8584 9.578-0.54318 1.076-1.535 2.3052-2.691 3.3349l-1.8308 1.6308 0.37107 2.5666c0.30312 2.0964 0.29607 3.0488-0.0384 5.199-0.36822 2.367-0.35859 2.7757 0.0956 4.0544 0.63675 1.7928 0.63198 2.0457-0.0694 3.6821-0.43734 1.0203-0.49107 1.4239-0.225 1.6902 0.21057 0.21077 0.34953 1.3523 0.34953 2.8712 0 2.1197 0.0897 2.587 0.56298 2.9334 0.46197 0.33811 0.50235 0.52536 0.225 1.0436-0.18588 0.34735-0.33798 0.90926-0.33798 1.2487 0 0.80978 3.3904 4.2537 4.988 5.0667 1.3999 0.7124 1.5644 1.0084 1.9191 3.4523 0.20214 1.3928 0.51582 2.0804 1.5482 3.3935 2.1596 2.7468 2.1517 2.7277 2.3472 5.6971 0.17703 2.6898 0.24321 2.9032 1.4165 4.567 1.5547 2.2045 1.8534 3.3407 2.1358 8.123l0.22821 3.8642 1.5307 2.5043c0.84186 1.3774 1.6736 3.0443 1.8483 3.7043 0.46749 1.7659 1.169 6.7898 1.4033 10.05 0.11265 1.5675 0.45018 4.0433 0.75006 5.5018 0.29985 1.4585 0.47214 2.8422 0.38283 3.075-0.11868 0.30921-0.73536 0.42321-2.2895 0.42321-1.9433 0-2.3142 0.10707-4.2932 1.2394-1.3226 0.75672-2.2326 1.4869-2.3367 1.875-0.0938 0.34962-0.17328 1.6481-0.17655 2.8856-0.004 1.4119-0.1746 2.5734-0.4587 3.1181-0.249 0.47748-0.41691 1.2033-0.37314 1.613 0.0699 0.65397-0.11109 0.80781-1.4825 1.2604-0.85914 0.28353-2.2766 1.0549-3.15 1.714-1.9429 1.4665-3.0507 1.9206-5.2734 2.1622l-1.7146 0.1863 0.0616 1.948c0.0747 2.3603 0.85284 4.9918 3.6634 12.388 1.1788 3.1021 2.5442 7.195 3.0341 9.0953 0.85824 3.3285 0.89085 3.7006 0.89085 10.163 0 5.1176 0.0929 6.8023 0.3918 7.1047 0.62205 0.62943 0.76812 1.2737 0.53799 2.373-0.11976 0.57207-0.0481 1.8172 0.16254 2.8234 0.20724 0.99 0.4674 2.9475 0.57816 4.35 0.15891 2.0124 0.38349 2.8738 1.0651 4.0858 0.72219 1.2843 0.83388 1.7534 0.68172 2.8636-0.15414 1.1246-0.0694 1.4632 0.55413 2.2141 0.85749 1.0327 2.3286 3.8885 2.3286 4.5205 0 0.23913 0.18879 0.50721 0.41952 0.59577 0.23073 0.0885 0.56733 0.74802 0.74802 1.4655 0.40152 1.5947 1.6652 2.7438 5.5976 5.0905 1.5365 0.91692 3.073 2.0222 3.4143 2.4561 0.83424 1.0606 0.84606 3.6529 0.0243 5.3503-1.2393 2.56-4.7327 5.4463-9.7594 8.063-1.4071 0.73248-3.5468 2.3885-6.45 4.9919-2.3894 2.1427-5.1058 4.3024-6.0364 4.7993l-1.692 0.90357h-6.0009c-5.4326 0-6.0214-0.0497-6.2176-0.525zm7.5426-229.72c0.201-0.52379-1.241-3.1153-1.8671-3.3556-0.56279-0.21596-3.4186 1.1892-4.2797 2.1058l-0.67351 0.71692 1.5901 0.0183c0.87456 0.0101 2.1301 0.21466 2.7901 0.45463 1.5994 0.58153 2.234 0.59712 2.4401 0.0599zm-55.46-133.64c-2.2944-0.73348-4.4007-2.1245-6.2034-4.0971-5.097-5.5769-4.8541-14.239 0.55087-19.644 5.5748-5.5748 14.573-5.5748 20.148 0 5.396 5.396 5.6394 14.077 0.55087 19.644-2.9662 3.2455-6.2912 4.691-10.727 4.6635-1.6534-0.01026-3.2243-0.21626-4.3197-0.56642z"/>
</svg>
