<?xml version="1.0" encoding="UTF-8" standalone="no"?>
<!-- Created with Inkscape (http://www.inkscape.org/) -->
<svg id="svg3346" xmlns:rdf="http://www.w3.org/1999/02/22-rdf-syntax-ns#" xmlns="http://www.w3.org/2000/svg" height="184.8" viewBox="0 0 108.6 184.8" width="108.6" version="1.1" xmlns:cc="http://creativecommons.org/ns#" xmlns:dc="http://purl.org/dc/elements/1.1/" fill="#1976d2">
 <metadata id="metadata3352">
  <rdf:RDF>
   <cc:Work rdf:about="">
    <dc:format>image/svg+xml</dc:format>
    <dc:type rdf:resource="http://purl.org/dc/dcmitype/StillImage"/>
    <dc:title/>
   </cc:Work>
  </rdf:RDF>
 </metadata>
 <path id="path6682" d="m37.833 185.41c-4.2366-0.58073-4.9711-1.0996-5.7477-4.0607-0.51334-1.9572-0.51262-1.9698 0.18683-3.29 0.64295-1.2136 0.70569-1.7206 0.74429-6.0148l0.0421-4.6895 0.96222-1.0959c0.58752-0.66915 0.96223-1.4194 0.96223-1.9268 0-1.2136 1.6081-3.576 2.7699-4.0692 4.5505-1.9318 6.0242-2.745 7.4132-4.0908 0.83428-0.80835 1.5169-1.6818 1.5169-1.9409 0-1.3119 2.8334-4.9635 4.1839-5.3922 0.48255-0.15315 0.55671-0.70303 0.69972-5.1882 0.088-2.7593 0.32251-5.5569 0.52118-6.2169 0.19866-0.66 1.5613-3.6051 3.0282-6.5447 1.8519-3.7112 2.667-5.6703 2.667-6.41 0-0.96203-0.06544-1.0466-0.675-0.87204-0.37125 0.10629-2.3316 0.57616-4.3563 1.0442-2.1884 0.50582-3.9354 1.0804-4.3081 1.4167-0.34477 0.31121-1.1 1.5108-1.6783 2.6658-0.57832 1.155-1.5084 2.6627-2.0669 3.3505-0.55848 0.68777-1.0154 1.329-1.0154 1.425s0.37125 0.17501 0.825 0.17563c2.9412 0.004 4.935 4.3206 3.539 7.6617-0.6243 1.4942-3.142 4.0563-6.6692 6.787-3.4199 2.6476-3.7735 3.118-5.3752 7.1502-0.95638 2.4076-1.4144 3.1328-2.9508 4.6721-1.0003 1.0022-2.7637 2.3522-3.9187 3-1.8809 1.055-2.3042 1.1743-4.0568 1.1438-4.8659-0.0848-6.6857-2.9331-5.0738-7.9413 1.6049-4.9862 3.1979-7.3331 7.8226-11.525 1.1157-1.0111 1.8334-1.9688 2.2024-2.9384l0.54733-1.4384-0.98528-1.0166c-0.5419-0.5591-1.6286-1.4555-2.4148-1.992-2.6069-1.779-3.8289-4.6538-3.4955-8.2238 0.15329-1.6416 0.10744-1.8961-0.36384-2.0194-0.39399-0.10304-0.60145-0.57608-0.77024-1.7563-0.35335-2.4707-0.30144-2.7781 0.70335-4.1652 0.514-0.70956 0.93455-1.5466 0.93455-1.86 0-0.7699 0.69388-2.0606 1.5-2.7901 1.0529-0.95289 1.4107-1.935 1.6391-4.5 0.11758-1.32 0.47187-2.9909 0.78732-3.7131 0.31545-0.72222 0.57355-1.9495 0.57355-2.7273 0-3.01 1.7271-6.4791 3.886-7.8054 0.75118-0.46147 1.214-0.96969 1.214-1.333 0-1.0133 3.0138-3.6003 5.8062-4.984l2.5938-1.2853v-1.1829c0-1.0544 0.22382-1.4157 2.0607-3.326 2.4976-2.5974 2.7952-3.1348 2.7338-4.9379-0.0825-2.4245-0.0161-2.7096 0.86682-3.7197 1.1939-1.3659 2.4387-3.2467 2.4387-3.6848 0-0.23697-0.87099-0.0168-2.475 0.62564-4.314 1.7278-12.064 3.4711-17.415 3.9173-2.3382 0.195-2.4962 0.25607-3.7999 1.469-3.1934 2.9712-6.5552 4.3422-10.617 4.33-4.4792-0.0134-7.2285-1.0987-10.427-4.1158-2.3735-2.239-3.6312-4.4921-4.3134-7.7269-0.58776-2.7871-0.56553-3.8151 0.14233-6.5828 1.1658-4.5581 3.7481-7.7174 8.0506-9.8494 2.3923-1.1854 2.707-1.262 5.6298-1.3702 2.5097-0.0929 3.4842 0.003 5.1474 0.50854 5.4423 1.6531 9.3711 6.1014 10.331 11.697 0.21594 1.2593 0.51637 2.147 0.72661 2.147 0.94814 0 6.047-2.9648 9.2694-5.3899 2.7109-2.0401 6.3939-4.3601 6.9216-4.3601 0.0119 0-0.0687-1.2825-0.17905-2.85-0.15969-2.2679-0.37212-3.187-1.04-4.5-0.46166-0.9075-1.1573-2.9025-1.546-4.4333-1.5698-6.1836-0.39849-11.3 2.9589-12.926 1.0403-0.50362 1.4687-0.96539 2.1117-2.2766 0.44367-0.90464 1.2889-2.1785 1.8782-2.8309 1.0241-1.1336 1.0624-1.2548 0.86536-2.7403-0.17891-1.3487-0.31691-1.5928-1.0437-1.8462-1.1386-0.39692-1.8069-1.5189-2.0966-3.5201-0.13355-0.92236-0.33543-2.053-0.44862-2.5125-0.14635-0.5941-0.0545-1.0028 0.31801-1.4143 0.49344-0.54523 0.49468-0.65167 0.0215-1.8342-1.2164-3.04-0.83567-6.8399 0.95197-9.5016 2.4896-3.7069 8.3541-5.4801 13.228-3.9997 2.7994 0.85029 5.6383 2.8064 6.7986 4.6844 0.88324 1.4296 0.90056 1.5354 0.93036 5.6789 0.02139 2.9772 0.18237 4.7791 0.54593 6.1111 0.43577 1.5966 0.46463 2.2235 0.18646 4.05-0.18101 1.1886-0.46817 2.5915-0.63814 3.1176-0.23672 0.7328-0.20638 1.154 0.12967 1.8 1.0287 1.9775 2.8671 2.984 6.2674 3.4313 3.2478 0.42717 5.5157 1.6068 7.3882 3.843 0.7646 0.91313 1.8492 2.0672 2.4103 2.5646 3.2417 2.874 3.9299 3.5908 3.9299 4.0931 0 0.30615 0.41862 0.92893 0.93027 1.384 1.7679 1.5722 2.9255 4.2954 3.5877 8.44 0.38507 2.41 0.72391 3.0668 3.5789 6.9373 3.562 4.8291 3.8163 5.2996 5.2418 9.6982 0.95004 2.9317 1.8076 4.894 2.9962 6.8562 1.5409 2.5437 1.6647 2.8851 1.6586 4.5723-0.009 2.4677-0.60117 3.6422-3.9686 7.8706-2.8681 3.6013-5.7671 6.5312-9.1552 9.2527-1.8529 1.4884-1.8674 1.512-1.8685 3.0432-0.0033 4.5155-1.2184 11.558-2.9896 17.326-0.46118 1.5019-0.93441 3.4344-1.0516 4.2945-0.12913 0.94742-0.56194 2.0903-1.0982 2.8999-0.6987 1.0548-1.0107 2.0824-1.4817 4.8803-0.58853 3.496-1.9186 7.1497-2.8991 7.9633-0.62188 0.51611-2.0373 3.4691-2.417 5.0428-0.17919 0.7425-0.41998 2.2275-0.53508 3.3-0.33791 3.1486-1.1361 4.8564-3.4217 7.3214-1.1236 1.2118-2.1393 2.5239-2.2572 2.9159-0.25063 0.83353-1.9394 3.6124-2.3902 3.9331-0.60068 0.42728-2.8975 0.2226-4.0394-0.35999-1.3397-0.68345-3.5925-3.1495-4.5832-5.017-0.37748-0.71157-0.82154-1.2489-0.98678-1.1941s-0.38336 0.76795-0.4847 1.5847c-0.24964 2.0119-0.91622 3.1836-3.5995 6.3273-2.2583 2.6457-4.746 4.6113-6.6399 5.2462-0.537 0.18004-1.1789 0.49364-1.4264 0.69687-0.2475 0.20324-0.98752 0.46611-1.6445 0.58415-0.65697 0.11804-1.4321 0.34178-1.7224 0.49718-0.77852 0.41665-1.7336 2.5832-1.551 3.5181 0.0856 0.43787-0.12116 1.6736-0.4594 2.7461-0.77908 2.4703-0.77415 2.7195 0.0974 4.9265 0.39609 1.003 0.88996 2.5993 1.0975 3.5474 0.45191 2.0647 0.13257 2.6058-1.8975 3.2154-1.2827 0.38517-6.5084 0.66447-8.1702 0.43669zm55.847-102.95c0.99801-1.3499 1.6029-2.6929 1.6029-3.5587 0-1.0049-1.4167-3.4938-1.8978-3.3342-0.19369 0.0642-0.44341 0.71331-0.55493 1.4424-0.28983 1.8948-0.29238 6.2756-0.0037 6.2756 0.13397 0 0.51806-0.37125 0.85352-0.825z" fill="#000"/>
</svg>
