<?xml version="1.0" encoding="UTF-8" standalone="no"?>
<!-- Created with Inkscape (http://www.inkscape.org/) -->
<svg id="svg4136" xmlns:rdf="http://www.w3.org/1999/02/22-rdf-syntax-ns#" xmlns="http://www.w3.org/2000/svg" height="750" viewBox="0 0 750 750" width="750" version="1.1" xmlns:cc="http://creativecommons.org/ns#" xmlns:dc="http://purl.org/dc/elements/1.1/">
 <metadata id="metadata4142">
  <rdf:RDF>
   <cc:Work rdf:about="">
    <dc:format>image/svg+xml</dc:format>
    <dc:type rdf:resource="http://purl.org/dc/dcmitype/StillImage"/>
    <dc:title/>
   </cc:Work>
  </rdf:RDF>
 </metadata>
 <g id="g4165" transform="translate(-290.26 23.422)">
  <path id="path4167" d="m692.56 689.39c-0.38981-0.38981 0.046-2.1843 0.96849-3.9878 5.2491-10.262 21.199-54.43 26.237-72.654 1.6154-5.8438 4.3517-15.406 6.0806-21.25 10.86-36.707 21.15-95.22 25.279-143.75 2.8801-33.85 2.1211-31.249 9.121-31.255 3.2345-0.002 14.881-0.87111 25.881-1.9296 38.603-3.7145 44.858-4.2486 45.244-3.8632 0.21378 0.21378 1.205 6.5276 2.2027 14.031 6.6641 50.118 17.27 81.249 38.448 112.86 7.2824 10.87 24.468 29.018 38.996 41.182l9.8902 8.2804-12.199 11.525c-24.291 22.949-46.435 38.417-77.581 54.19-43.224 21.891-78.055 31.622-131.43 36.717-3.5359 0.33759-6.7478 0.29487-7.1376-0.095zm-65.582-2.924c-38.23-5.83-63.86-14.3-104.25-34.45-22.75-11.34-34.73-18.35-34.73-20.29 0-0.49693 5.1149-5.9543 11.366-12.127 26.723-26.388 47.605-54.411 65.464-87.853 17.343-32.475 26.325-61.863 31.592-103.37l0.95181-7.5 7.5-0.94057c4.125-0.51732 34.219-0.79857 66.875-0.625l59.375 0.31557 0.38277 4.6006c0.21053 2.5303-0.78499 16.03-2.2123 30-8.7493 85.635-24.66 150.04-55.377 224.15l-4.1446 10-13.699 0.22084c-8.2465 0.13295-19.828-0.7141-29.098-2.1281zm-166.84-74.91c-25.772-20.732-63.198-65.285-78.459-93.399-22.435-41.329-34.476-76.078-39.95-115.29-1.4006-10.034-2.852-19.227-3.2252-20.43-0.86122-2.7763 0.34239-2.7436 11.99 0.32581 54.844 14.453 137.46 27.965 201.73 32.992 14.215 1.1121 22.685 2.2907 23.271 3.238 2.4214 3.9179-3.7175 38.236-10.681 59.709-9.564 29.492-29.625 66.644-50.069 92.723-10.19 13-39.289 44.34-43.024 46.339-1.8944 1.0139-4.0056-0.1185-11.577-6.2097zm465.36-47.34c-8.9668-6.6165-28.226-26.826-36.251-38.039-6.4611-9.0282-18.844-34.617-23.132-47.803-6.6404-20.418-11.798-48.257-11.844-63.936l-0.0229-7.6856 9.0625-0.87308c4.9844-0.48019 12.719-1.6194 17.188-2.5316 4.4688-0.91219 16-2.8278 25.625-4.257s21.156-3.4126 25.625-4.4077c4.4688-0.99506 12.344-2.6466 17.5-3.67 17.142-3.4026 50.523-10.746 57.957-12.749 4.0326-1.0869 7.8003-1.5068 8.3726-0.93317 1.2109 1.2136-2.5071 29.319-6.2062 46.915-5.9871 28.479-22.047 69.085-38.283 96.796-13.169 22.476-32.83 49.235-36.141 49.188-0.72825-0.01-4.9803-2.7168-9.4491-6.0142zm-314.99-166.06c-5.8399-0.28888-11.036-0.94293-11.546-1.4534-0.5105-0.5105-1.7924-8.7824-2.8486-18.382-2.9822-27.103-5.4798-37.915-15.871-68.704-5.2119-15.442-6.551-18.558-21.223-49.375-11.757-24.695-20.583-39.646-47.548-80.544-10.073-15.278-52.384-68.44-60.177-75.611-1.82-1.67-3.3-3.66-3.3-4.418 0-1.2632 9.3968-9.5283 23.75-20.89 28.363-22.451 68.624-42.909 108.75-55.259 26.785-8.2439 80.647-15.657 84.571-11.639 2.3622 2.4182 16.848 42.723 24.568 68.356 20.929 69.495 33.492 135.69 40.326 212.5 3.4375 38.631 5.542 101.74 3.462 103.82-1.1861 1.1861-104.16 2.5198-122.92 1.592zm-66.26-3.69c-41.892-4.0323-111.93-14.187-136.88-19.846-4.125-0.93567-13.125-2.9451-20-4.4653-15.62-3.4541-34.128-8.2155-43.125-11.095l-6.875-2.2 0.004-16.744c0.002-9.2091 0.75408-21.244 1.6714-26.744 0.91729-5.5 2.4814-15.062 3.4757-21.25 5.1429-32.002 14.022-60.06 28.511-90.093 10.967-22.734 17.761-34.102 31.276-52.335 12.258-16.537 28.069-35.072 29.918-35.072 1.7289 0 28.135 31.113 41.375 48.75 30.016 39.984 42.598 59.856 65.876 104.04 12.86 24.41 29.317 68.688 31.717 85.334 0.44605 3.0938 1.5536 8.7188 2.4613 12.5 0.90769 3.7812 2.0411 12.359 2.5188 19.062l0.86845 12.188-7.3362-0.14354c-4.0349-0.0789-15.492-0.9286-25.461-1.8881zm210.75 0.0226c-0.41059-1.07-0.78526-13.009-0.83263-26.531-0.31699-90.494-14.291-188.81-39.144-275.4-6.7097-23.377-15.694-51.004-22.246-68.404-2.6853-7.1317-4.6706-13.178-4.4117-13.437 0.96318-0.96318 36.894 2.0313 47.138 3.9285 35.35 6.5471 63.52 16.075 96.73 32.716 28.577 14.32 69.34 42.983 67.839 47.702-1.815 5.7029-7.2316 19.828-8.3484 21.769-4.0557 7.0523-25.507 69.727-33.469 97.788-6.4564 22.754-7.9951 28.93-12.145 48.75-8.6599 41.361-11.199 61.874-13.872 112.07l-0.70921 13.319-3.9502 0.70661c-2.1726 0.38865-16.044 1.8377-30.825 3.2201-43.863 4.1022-40.919 3.9753-41.753 1.8003zm98.445-26.253c0.87399-19.235 3.7229-49.308 5.967-62.988 3.5784-21.813 13.015-64.859 17.967-81.957 2.2512-7.773 22.573-70.216 25.367-77.945 2.7623-7.6418 12.786-31.876 13.986-33.815 1.4921-2.4104 4.004-0.0657 20.053 18.717 39 45.643 66.097 104.03 75.709 163.12 3.1767 19.532 5.3267 52.455 3.8179 58.466-0.8923 3.5555-2.9167 4.2494-28.308 9.7029-9.9688 2.1411-22.906 4.9472-28.75 6.2358-23.651 5.2154-35.645 7.4636-62.745 11.761-15.604 2.4744-31.29 5.0525-34.858 5.7292-3.5684 0.67673-7.0611 1.2304-7.7615 1.2304-0.84444 0-0.99394-6.1529-0.44371-18.262z" fill="#fd6500"/>
 </g>
 <g id="g4752">
  <flowRoot id="flowRoot4144" style="word-spacing:0px;letter-spacing:0px" xml:space="preserve" font-size="500px" line-height="125%" font-family="&apos;Viner Hand ITC&apos;" fill="black"><flowRegion id="flowRegion4146"><rect id="rect4148" y="131.31" width="451.89" height="162.07" x="218.85"/></flowRegion><flowPara id="flowPara4150"/></flowRoot>
  <flowRoot id="flowRoot4152" style="word-spacing:0px;letter-spacing:0px" xml:space="preserve" font-size="500px" line-height="125%" font-family="sans-serif" fill="black"><flowRegion id="flowRegion4154"><rect id="rect4156" y="212.22" width="506.71" height="477.78" x="235.68"/></flowRegion><flowPara id="flowPara4158"/></flowRoot>
  <text id="text4160" style="word-spacing:0px;letter-spacing:0px" xml:space="preserve" font-size="35px" line-height="125%" y="274.35757" x="297.81216" font-family="Stencil" fill="#000000"><tspan id="tspan4162" y="274.35757" x="297.81216"/></text>
  <flowRoot id="flowRoot4164" font-size="312.5px" xml:space="preserve" style="word-spacing:0px;letter-spacing:0px" line-height="125%" font-family="sans-serif" fill="#000000"><flowRegion id="flowRegion4166"><rect id="rect4168" y="131.88" width="5.3563" height="284.96" x="163.9"/></flowRegion><flowPara id="flowPara4170">t</flowPara></flowRoot>
  <text id="text4172" style="word-spacing:0px;letter-spacing:0px" font-family="&apos;Segoe Print&apos;" xml:space="preserve" font-size="200px" line-height="125%" stroke="#872ec1" y="586.09619" x="107.12667" stroke-width="3" fill="#f2ee52"><tspan id="tspan4174" y="586.09619" x="107.12667">Team</tspan></text>
  <flowRoot id="flowRoot4176" style="word-spacing:0px;letter-spacing:0px" xml:space="preserve" font-size="50px" line-height="125%" font-family="sans-serif" fill="black"><flowRegion id="flowRegion4178"><rect id="rect4180" y="116.88" width="9.6414" x="246.39" height="323.52"/></flowRegion><flowPara id="flowPara4182"/></flowRoot>
  <g id="g4774" font-family="&apos;Segoe Script&apos;">
   <text id="text4184" style="word-spacing:0px;letter-spacing:0px" xml:space="preserve" font-size="50px" line-height="125%" y="191" x="265" fill="#000000"><tspan id="tspan4186" y="191" x="265"/></text>
   <text id="text4192" font-size="370.3px" line-height="125%" xml:space="preserve" style="word-spacing:0px;letter-spacing:0px" transform="scale(.80926 1.2357)" stroke="#872ec1" y="321.00833" x="263.92053" stroke-width="3" fill="#f2ee52"><tspan id="tspan4194" y="321.00833" x="263.92053">1</tspan></text>
   <text id="text4196" style="word-spacing:0px;letter-spacing:0px" xml:space="preserve" font-size="125px" line-height="125%" y="172" x="377" fill="#872ec1"><tspan id="tspan4198" y="172" x="377" style="">st</tspan></text>
  </g>
 </g>
 <flowRoot id="flowRoot4172" style="word-spacing:0px;letter-spacing:0px" xml:space="preserve" font-size="50px" line-height="125%" font-family="Stencil" fill="#872ec1"><flowRegion id="flowRegion4174"><rect id="rect4176" height="61.514" width="4.7319" y="624.61" x="205.84" fill="#872ec1"/></flowRegion><flowPara id="flowPara4178"/></flowRoot>
 <text id="text4180" line-height="125%" style="word-spacing:0px;letter-spacing:0px" font-family="Stencil" fill-opacity=".99608" xml:space="preserve" font-size="100px" stroke="#fdb928" y="721.60889" x="94.637222" stroke-width="3" fill="#552581"><tspan id="tspan4182" x="94.637222" y="721.60889">basketball</tspan></text>
</svg>
