<?xml version="1.0" encoding="UTF-8" standalone="no"?>
<!-- Created with Inkscape (http://www.inkscape.org/) -->

<svg
   xmlns:dc="http://purl.org/dc/elements/1.1/"
   xmlns:cc="http://creativecommons.org/ns#"
   xmlns:rdf="http://www.w3.org/1999/02/22-rdf-syntax-ns#"
   xmlns:svg="http://www.w3.org/2000/svg"
   xmlns="http://www.w3.org/2000/svg"
   xmlns:sodipodi="http://sodipodi.sourceforge.net/DTD/sodipodi-0.dtd"
   xmlns:inkscape="http://www.inkscape.org/namespaces/inkscape"
   width="210mm"
   height="297mm"
   viewBox="0 0 744.09448819 1052.3622047"
   id="svg2"
   version="1.1"
   inkscape:version="0.91 r13725"
   sodipodi:docname="team-first.svg">
  <defs
     id="defs4" />
  <sodipodi:namedview
     id="base"
     pagecolor="#ffffff"
     bordercolor="#666666"
     borderopacity="1.0"
     inkscape:pageopacity="0.0"
     inkscape:pageshadow="2"
     inkscape:zoom="0.35"
     inkscape:cx="-231.32952"
     inkscape:cy="844.25049"
     inkscape:document-units="px"
     inkscape:current-layer="layer2"
     showgrid="false"
     inkscape:window-width="1536"
     inkscape:window-height="801"
     inkscape:window-x="-8"
     inkscape:window-y="-8"
     inkscape:window-maximized="1"
     inkscape:snap-text-baseline="true" />
  <metadata
     id="metadata7">
    <rdf:RDF>
      <cc:Work
         rdf:about="">
        <dc:format>image/svg+xml</dc:format>
        <dc:type
           rdf:resource="http://purl.org/dc/dcmitype/StillImage" />
        <dc:title></dc:title>
      </cc:Work>
    </rdf:RDF>
  </metadata>
  <g
     inkscape:groupmode="layer"
     id="layer2"
     inkscape:label="Layer 2">
    <path
       style="fill:#ff6600"
       d="m 308.73315,864.83921 c -13.90811,-1.65607 -26.97667,-3.73696 -28.33321,-4.51146 -0.79553,-0.45419 -4.61628,-1.35284 -8.49057,-1.997 -3.87428,-0.64416 -7.46867,-1.4915 -7.98754,-1.88298 -0.51887,-0.39148 -3.23372,-1.24902 -6.03301,-1.90563 -2.79928,-0.65662 -6.19551,-1.77093 -7.54717,-2.47623 -1.35166,-0.70531 -3.09435,-1.29939 -3.87265,-1.3202 -0.7783,-0.0208 -3.11321,-0.85806 -5.18868,-1.86059 -2.07547,-1.00253 -4.13396,-1.83718 -4.57441,-1.85478 -1.26624,-0.0507 -6.61853,-2.53756 -22.12131,-10.27864 -16.63454,-8.30622 -17.42379,-8.73952 -25.74861,-14.13615 l -6.21791,-4.0308 11.40659,-11.51549 c 10.91315,-11.01733 16.11938,-16.7835 23.57331,-26.10867 1.86637,-2.3349 4.03153,-4.91769 4.81146,-5.73952 0.77992,-0.82183 1.41805,-1.77227 1.41805,-2.1121 0,-0.33983 1.91037,-3.12986 4.24528,-6.20006 2.33491,-3.0702 4.24528,-5.83872 4.24528,-6.15228 0,-0.31356 1.43564,-2.6126 3.19031,-5.10899 3.22985,-4.59515 8.62967,-14.26856 13.25399,-23.74365 1.39279,-2.85378 3.35694,-6.75864 4.36478,-8.67747 1.00784,-1.91884 1.83505,-4.04148 1.83825,-4.71698 0.003,-0.67551 0.58211,-2.33263 1.28649,-3.68249 1.93773,-3.71347 7.19826,-19.30079 7.19826,-21.32896 0,-0.98053 0.39393,-2.18608 0.87541,-2.67901 0.48148,-0.49292 1.56465,-4.29245 2.40706,-8.44339 0.84241,-4.15095 1.90502,-9.26319 2.36135,-11.36055 0.45634,-2.09736 1.09626,-7.61623 1.42204,-12.26415 0.32579,-4.64793 0.76123,-9.29983 0.96767,-10.33757 0.3702,-1.86103 1.12937,-1.88679 55.60504,-1.88679 l 55.22972,0 -0.0479,4.71698 c -0.13685,13.48525 -4.40294,51.64456 -8.27929,74.0566 -2.76664,15.99607 -7.85077,39.62976 -10.14725,47.16982 -0.71115,2.3349 -1.77708,6.58018 -2.36873,9.43396 -0.59165,2.85377 -1.40465,5.61321 -1.80668,6.13207 -0.40202,0.51887 -1.24751,3.49057 -1.87885,6.60378 -0.63134,3.1132 -1.46052,6.0849 -1.84265,6.60377 -0.38212,0.51887 -1.25103,3.06604 -1.93093,5.66038 -0.6799,2.59434 -1.52895,5.14151 -1.88679,5.66037 -0.35784,0.51887 -1.22378,3.06604 -1.9243,5.66038 -0.70052,2.59434 -1.8251,5.7783 -2.49906,7.07547 -0.67397,1.29717 -1.23062,2.99529 -1.23702,3.77359 -0.007,0.7783 -0.59933,2.54151 -1.31764,3.91823 -0.71832,1.37673 -1.83235,4.13617 -2.47563,6.13208 -0.64329,1.99592 -1.48685,4.05346 -1.87459,4.57233 -0.38774,0.51887 -1.01903,2.00472 -1.40285,3.30189 -0.38382,1.29717 -1.70936,4.59985 -2.94565,7.33928 -1.23628,2.73942 -2.24779,5.40767 -2.24779,5.92942 0,0.52174 -0.68561,1.995 -1.5236,3.27392 -1.43924,2.19657 -1.97459,2.31708 -9.66981,2.17687 -4.48036,-0.0816 -10.9056,-0.47701 -14.27824,-0.87861 z"
       id="path3346"
       inkscape:connector-curvature="0" />
    <path
       style="fill:#ff6600"
       d="m 347.65898,862.56436 c 0.55736,-1.81603 1.33295,-3.30188 1.72353,-3.30188 0.39059,0 0.99782,-1.37972 1.34942,-3.06604 0.35159,-1.68632 1.17001,-3.91509 1.8187,-4.95283 0.6487,-1.03774 1.70496,-3.58491 2.34725,-5.66038 0.64229,-2.07547 1.73525,-5.04717 2.42879,-6.60377 0.69354,-1.5566 1.56452,-4.10377 1.93551,-5.66038 0.37099,-1.5566 0.98519,-3.25472 1.3649,-3.77358 0.3797,-0.51887 1.1998,-2.64151 1.82243,-4.71698 0.62264,-2.07548 1.4972,-4.62265 1.94346,-5.66038 1.654,-3.8462 6.60433,-20.46917 6.60433,-22.17702 0,-0.97253 0.36388,-1.99312 0.80863,-2.26799 0.44474,-0.27487 1.357,-3.16549 2.02723,-6.4236 0.67024,-3.25812 1.54182,-6.56764 1.93686,-7.3545 0.67867,-1.35183 1.63271,-5.29604 5.58688,-23.09765 0.92203,-4.15094 2.11841,-9.24528 2.65862,-11.32075 0.54022,-2.07547 1.26394,-6.10849 1.60828,-8.96227 0.34434,-2.85377 1.18582,-7.52358 1.86995,-10.37735 0.68414,-2.85378 1.72654,-9.43397 2.31645,-14.62265 0.58991,-5.18867 1.49305,-11.34433 2.00697,-13.67924 0.81296,-3.69348 2.48224,-20.91915 4.52537,-46.69811 l 0.59816,-7.54717 4.71698,-0.22554 c 11.93284,-0.57056 33.21857,-2.30671 37.15478,-3.03049 2.39506,-0.44039 8.64336,-1.09671 13.88511,-1.45847 l 9.53046,-0.65776 0.56302,5.51632 c 1.90521,18.66664 7.12708,47.12704 9.14748,49.85594 0.38417,0.51886 1.22125,3.17347 1.8602,5.89913 0.63896,2.72566 1.54361,5.19175 2.01034,5.48021 0.46674,0.28845 0.84861,1.21443 0.84861,2.05773 0,3.55728 10.3539,23.69503 17.4528,33.9447 5.04755,7.28785 5.06854,7.31458 9.70913,12.36387 9.27466,10.0915 14.30057,14.84972 21.89467,20.72848 4.41038,3.41418 8.22386,6.36674 8.47441,6.56127 0.74699,0.57995 -18.52441,18.6013 -25.9699,24.28536 -1.35932,1.03774 -3.39166,2.62598 -4.5163,3.52944 -3.0918,2.48371 -8.68764,6.69979 -10.66457,8.035 -4.79752,3.24026 -12.49046,8.10088 -15.43685,9.75346 -1.81604,1.01857 -5.21226,2.93407 -7.54717,4.25667 -8.53914,4.83692 -13.90422,7.46053 -28.91616,14.14037 -1.63502,0.72754 -3.33313,1.3372 -3.77358,1.35481 -0.44045,0.0176 -2.49894,0.85225 -4.57441,1.85478 -2.07547,1.00253 -4.41038,1.83979 -5.18868,1.86059 -0.7783,0.0208 -2.52099,0.61489 -3.87265,1.3202 -1.35166,0.7053 -4.74789,1.81961 -7.54717,2.47623 -2.79929,0.65661 -5.51414,1.50685 -6.03301,1.88939 -0.51887,0.38256 -3.91509,1.20709 -7.54717,1.83229 -3.63207,0.6252 -7.45283,1.52307 -8.49056,1.99528 -3.31758,1.50961 -33.1032,5.4265 -42.12868,5.54003 l -5.33623,0.0671 1.01338,-3.30189 z"
       id="path3348"
       inkscape:connector-curvature="0" />
    <path
       style="fill:#ff6600"
       d="m 538.89956,768.20831 c -1.77046,-1.3062 -4.50624,-3.31875 -6.07951,-4.47232 -5.31763,-3.89906 -21.70332,-21.06503 -25.48926,-26.70305 -2.06847,-3.08036 -3.97884,-5.81291 -4.24528,-6.07235 -0.83217,-0.81029 -3.06134,-4.86696 -7.77605,-14.15094 -9.80711,-19.3117 -16.47831,-44.99424 -18.18262,-69.99882 l -0.67479,-9.90008 9.48821,-1.07892 c 5.21852,-0.59341 11.31432,-1.49776 13.54621,-2.00968 2.2319,-0.51192 8.51555,-1.60791 13.96366,-2.43554 24.27679,-3.6879 27.93983,-4.31749 29.71698,-5.10765 1.03774,-0.46139 5.49528,-1.35144 9.90566,-1.97788 4.41038,-0.62643 8.4434,-1.40082 8.96226,-1.72086 0.51887,-0.32004 4.55189,-1.29898 8.96227,-2.17541 20.46685,-4.0672 23.23232,-4.67181 25,-5.46571 2.08971,-0.93852 11.04737,-2.84643 13.36401,-2.84643 1.07632,0 1.32091,0.57759 0.89888,2.12264 -0.31891,1.16745 -1.24246,8.03449 -2.05233,15.26008 -0.80989,7.22559 -1.81001,13.80578 -2.22251,14.62264 -0.41249,0.81686 -1.29883,4.88143 -1.96965,9.03237 -0.67081,4.15095 -1.52633,7.9717 -1.90114,8.49057 -0.37482,0.51887 -1.21721,3.2783 -1.87198,6.13207 -0.65476,2.85378 -1.51039,5.61321 -1.9014,6.13208 -0.391,0.51887 -1.02027,2.42924 -1.39837,4.24528 -0.37811,1.81604 -1.48845,5.08284 -2.46743,7.25956 -0.97899,2.17673 -1.77997,4.43179 -1.77997,5.01125 0,0.57947 -1.10286,3.46833 -2.45079,6.41969 -1.34794,2.95136 -3.09329,6.85196 -3.87857,8.66799 -2.65355,6.13665 -8.69167,17.84724 -12.07888,23.42634 -0.52548,0.86551 -2.20532,3.6963 -3.73298,6.29064 -2.87449,4.88158 -7.66859,11.99644 -11.50215,17.07018 -1.21313,1.60559 -2.20568,3.19757 -2.20568,3.53774 0,0.34018 -0.74293,1.41318 -1.65095,2.38445 -2.64528,2.82957 -8.18744,9.64025 -9.00914,11.0712 -1.1292,1.96644 -3.68817,1.59379 -7.28671,-1.06113 z"
       id="path3350"
       inkscape:connector-curvature="0" />
    <path
       style="fill:#ff6600"
       d="m 476.2224,609.97003 c 1.2095,-25.37566 4.23275,-52.38276 7.47163,-66.74529 0.76056,-3.37264 1.64084,-8.04245 1.95617,-10.37736 0.31533,-2.3349 1.00918,-5.64947 1.54189,-7.3657 0.53271,-1.71624 1.73323,-6.59832 2.66783,-10.84906 3.16004,-14.37257 4.79943,-20.93039 5.60166,-22.40752 0.43949,-0.80924 1.31649,-3.9932 1.94889,-7.07547 0.63239,-3.08227 1.47273,-6.02866 1.86742,-6.54753 0.39468,-0.51887 1.25332,-3.2783 1.90809,-6.13207 0.65477,-2.85378 1.49354,-5.61321 1.86395,-6.13208 0.3704,-0.51887 1.22974,-3.06604 1.90963,-5.66038 0.6799,-2.59434 1.52895,-5.14151 1.8868,-5.66037 0.35784,-0.51887 1.22377,-3.06604 1.92429,-5.66038 0.70052,-2.59434 1.8251,-5.7783 2.49907,-7.07547 0.67396,-1.29717 1.24241,-2.99529 1.26321,-3.77359 0.0208,-0.7783 0.85807,-3.11321 1.8606,-5.18868 1.00252,-2.07547 1.83979,-4.41038 1.86059,-5.18868 0.0208,-0.7783 0.62553,-2.54151 1.34384,-3.91823 0.71832,-1.37673 1.83235,-4.13617 2.47563,-6.13208 0.64328,-1.99591 1.47721,-4.05346 1.85317,-4.57233 0.37597,-0.51887 1.14442,-2.31397 1.70769,-3.98911 0.56326,-1.67515 1.98787,-5.1465 3.16578,-7.71412 l 2.14167,-4.66839 5.22581,5.45405 c 5.62997,5.87587 11.94734,13.10094 17.3823,19.87984 1.872,2.3349 4.04176,4.91768 4.82169,5.73951 0.77993,0.82183 1.41805,1.84754 1.41805,2.27935 0,0.43182 0.65333,1.45753 1.45183,2.27935 1.70265,1.75238 12.31621,17.93122 14.90509,22.72065 5.852,10.82622 13.93399,27.18044 14.87063,30.09126 0.60159,1.86962 1.4077,3.82384 1.79132,4.34271 0.38362,0.51886 1.23268,2.6415 1.88679,4.71698 0.65412,2.07547 1.52708,4.20375 1.93993,4.72952 0.41285,0.52577 1.26786,3.07294 1.90001,5.66038 0.63215,2.58744 1.45702,5.12896 1.83305,5.64783 0.37603,0.51887 1.1943,3.2783 1.81835,6.13208 0.62407,2.85377 1.51575,6.03773 1.98151,7.07547 1.25433,2.79468 3.71017,15.56983 5.25927,27.35849 0.75,5.70755 1.80582,13.13679 2.34624,16.50943 0.54043,3.37265 0.84576,11.43351 0.67854,17.91304 -0.28217,10.9327 -0.43993,11.80228 -2.19086,12.07694 -1.03774,0.16278 -2.73585,0.67318 -3.77359,1.1342 -1.83998,0.81745 -8.7639,2.39714 -23.1132,5.27325 -3.89151,0.78 -7.92453,1.80014 -8.96227,2.26697 -1.03773,0.46683 -5.07075,1.32258 -8.96226,1.90164 -3.89151,0.57907 -7.92453,1.43088 -8.96227,1.89291 -1.03773,0.46202 -5.91981,1.51319 -10.84905,2.33591 -4.92925,0.82273 -13.84434,2.35141 -19.81132,3.39707 -5.96698,1.04566 -16.20703,2.68238 -22.75565,3.63715 -6.54862,0.95477 -14.1049,2.20741 -16.79172,2.78363 -9.3921,2.01425 -8.7888,2.94235 -8.05772,-12.39572 z"
       id="path3352"
       inkscape:connector-curvature="0" />
    <path
       style="fill:#ff6600"
       d="m 397.12695,595.88624 c -0.3207,-19.36476 -1.01725,-37.54357 -1.54788,-40.39735 -0.53063,-2.85377 -1.61455,-13.04245 -2.4087,-22.64151 -1.47167,-17.78824 -3.98514,-38.59952 -6.09569,-50.47169 -5.3475,-30.08049 -8.74239,-46.69689 -13.20299,-64.62265 -1.09747,-4.41037 -2.61969,-10.7783 -3.38271,-14.15094 -0.76301,-3.37264 -1.77937,-6.98113 -2.25857,-8.01887 -0.47919,-1.03774 -1.38186,-4.2217 -2.00592,-7.07547 -0.62406,-2.85377 -1.43345,-5.61321 -1.79864,-6.13208 -0.36519,-0.51886 -1.20591,-3.49056 -1.86827,-6.60377 -0.66235,-3.11321 -1.52028,-6.08491 -1.9065,-6.60377 -0.38622,-0.51887 -1.21943,-3.0604 -1.85158,-5.64784 -0.63216,-2.58744 -1.49346,-5.13461 -1.91402,-5.66037 -0.42056,-0.52577 -1.07071,-2.44179 -1.44479,-4.25783 -0.37408,-1.81604 -1.23554,-4.57547 -1.91437,-6.13208 -0.67882,-1.5566 -1.72494,-4.5283 -2.32471,-6.60377 -0.59977,-2.07547 -1.4631,-4.62264 -1.91851,-5.66038 -2.16493,-4.93313 -5.64429,-14.41436 -5.64429,-15.38062 0,-0.64899 1.03773,-0.92003 2.59434,-0.67762 1.42688,0.22221 7.68868,0.65014 13.91509,0.95096 11.7632,0.56833 15.36456,1.04643 31.13208,4.13303 12.24228,2.3965 31.00431,7.41179 35.84905,9.58283 1.03774,0.46503 5.91982,2.38794 10.84906,4.27314 10.58657,4.04885 31.60299,14.37742 40.09434,19.70446 7.41169,4.64971 21.82956,14.31968 23.26115,15.60108 0.88199,0.78946 2.1647,1.86367 2.85047,2.38713 12.12535,9.25539 14.20378,11.39432 13.08542,13.46636 -2.01617,3.73546 -5.56072,12.48765 -6.15718,15.20329 -0.35343,1.60918 -0.98034,2.92578 -1.39312,2.92578 -0.41278,0 -1.00523,1.27357 -1.31654,2.83016 -0.31132,1.55659 -1.43632,4.74056 -2.50001,7.0755 -1.06369,2.33493 -2.18869,5.5189 -2.50001,7.0755 -0.31131,1.55658 -0.86969,2.83016 -1.24083,2.83016 -0.37113,0 -1.23492,2.3349 -1.91954,5.18868 -0.68461,2.85377 -1.55422,5.18867 -1.93247,5.18867 -0.37825,0 -0.98241,1.59199 -1.34256,3.53774 -0.36016,1.94576 -1.22968,4.81132 -1.93226,6.36793 -0.70259,1.5566 -1.80308,4.74056 -2.44553,7.07547 -0.64245,2.3349 -1.4627,4.66981 -1.82276,5.18868 -0.36008,0.51886 -1.19041,3.2783 -1.84517,6.13207 -0.65477,2.85378 -1.51216,5.61321 -1.90532,6.13208 -0.39315,0.51887 -1.25676,3.49056 -1.91912,6.60377 -0.66236,3.11321 -1.51876,6.08491 -1.90313,6.60377 -0.38437,0.51887 -1.22416,3.70283 -1.86621,7.07548 -0.64203,3.37264 -1.49575,6.55763 -1.89713,7.07774 -0.40138,0.52012 -1.39135,4.12861 -2.19992,8.01887 -1.76576,8.49545 -3.78784,17.9357 -5.75863,26.88452 -4.51663,20.50884 -8.10269,50.54288 -8.6869,72.75458 l -0.47442,18.03761 -8.15687,1.08363 c -9.84826,1.30833 -39.35769,4.04833 -49.28164,4.57587 l -7.16249,0.38075 -0.5831,-35.20868 z"
       id="path3354"
       inkscape:connector-curvature="0" />
    <path
       style="fill:#ff6600"
       d="m 293.95285,632.9532 c -11.50182,-0.31763 -21.11436,-0.78978 -21.36122,-1.04921 -0.24685,-0.25944 -0.92847,-6.29194 -1.5147,-13.40556 -0.58623,-7.11362 -1.4589,-14.75513 -1.93928,-16.98113 -0.48037,-2.226 -1.54502,-7.4435 -2.3659,-11.59444 -0.82087,-4.15095 -1.89668,-8.39623 -2.39068,-9.43397 -0.494,-1.03773 -1.35177,-3.99207 -1.90616,-6.56519 -0.55439,-2.57312 -1.3618,-5.12029 -1.79423,-5.66037 -0.43245,-0.5401 -1.09562,-2.46783 -1.47372,-4.28387 -0.3781,-1.81604 -1.48844,-5.08284 -2.46743,-7.25957 -0.97899,-2.17671 -1.77997,-4.52329 -1.77997,-5.21461 0,-0.69132 -0.58902,-2.09789 -1.30893,-3.12571 -0.71992,-1.02781 -1.84843,-3.66944 -2.50782,-5.87028 -0.65939,-2.20084 -1.55622,-4.00153 -1.99295,-4.00153 -0.43674,0 -0.79407,-0.67664 -0.79407,-1.50365 0,-1.41794 -11.99028,-26.25612 -16.12435,-33.40201 -1.05062,-1.81604 -2.74462,-4.78774 -3.76444,-6.60377 -1.01982,-1.81604 -2.91457,-5 -4.21056,-7.07547 -1.29599,-2.07548 -3.06263,-5.15331 -3.92587,-6.83963 -0.86324,-1.68632 -1.91542,-3.06603 -2.33819,-3.06603 -0.42277,0 -0.76867,-0.49059 -0.76867,-1.0902 0,-0.59961 -1.06132,-2.48166 -2.35849,-4.18234 -1.29717,-1.70068 -2.35849,-3.35086 -2.35849,-3.66707 0,-0.31621 -1.69811,-2.87357 -3.77358,-5.68304 -2.07547,-2.80946 -3.77359,-5.56409 -3.77359,-6.1214 0,-0.5573 -0.63679,-1.25764 -1.41509,-1.5563 -0.7783,-0.29867 -1.42079,-1.02827 -1.42775,-1.62134 -0.007,-0.59307 -0.85399,-2.13964 -1.88228,-3.43681 -1.02829,-1.29717 -4.70185,-6.17924 -8.16345,-10.84905 -10.01381,-13.50894 -21.49137,-27.90062 -26.44626,-33.1609 -1.13888,-1.20907 -2.41247,-2.79209 -2.83019,-3.51782 -0.41773,-0.72572 -3.25553,-3.98802 -6.30622,-7.24955 l -5.54672,-5.93005 5.30349,-4.78782 c 6.84329,-6.17792 22.68614,-18.55707 25.92254,-20.25515 1.3799,-0.724 2.72118,-1.57425 2.98061,-1.88944 0.46061,-0.5596 5.17245,-3.69022 10.84906,-7.20828 7.35021,-4.55528 22.25493,-12.1736 32.54717,-16.63598 2.3349,-1.01234 5.51887,-2.419 7.07547,-3.12592 1.5566,-0.70691 4.5283,-1.7972 6.60377,-2.42288 2.07548,-0.62567 4.19812,-1.45119 4.71699,-1.83448 0.51886,-0.3833 3.2783,-1.24262 6.13207,-1.90961 2.85377,-0.66698 5.82547,-1.5683 6.60377,-2.00294 1.82046,-1.0166 11.16463,-3.30049 23.11321,-5.64929 16.32654,-3.20941 18.55337,-3.49983 32.13804,-4.19142 l 13.27011,-0.67557 1.58838,3.34725 c 0.8736,1.84099 1.59099,3.70763 1.59419,4.14808 0.003,0.44045 0.57443,1.89044 1.26941,3.22219 0.69498,1.33175 1.57245,3.65193 1.94994,5.15595 0.37748,1.50402 1.50436,4.53027 2.50417,6.72499 0.99981,2.19472 1.82045,4.54435 1.82365,5.22141 0.003,0.67705 0.5658,2.30399 1.25024,3.61542 0.68444,1.31143 1.77456,4.48975 2.42249,7.06293 0.64794,2.57317 1.51558,5.10868 1.9281,5.63444 0.41253,0.52577 1.29575,3.29085 1.96274,6.14462 0.66699,2.85378 1.56405,5.82548 1.99349,6.60378 0.80368,1.4566 2.76974,8.46279 5.1623,18.39622 0.74984,3.11321 1.74549,6.50944 2.21256,7.54717 0.84509,1.87763 2.43141,8.2544 5.63242,22.64152 0.92355,4.15094 2.15232,9.24528 2.7306,11.32075 1.13243,4.06432 2.90376,12.79345 5.9345,29.24528 5.45717,29.6233 8.78561,55.08234 10.73028,82.07548 0.74762,10.37735 1.80341,23.96226 2.34621,30.18867 0.5428,6.22642 0.9834,20.93465 0.9791,32.68495 l -0.008,21.36419 -13.4434,0.55478 c -24.17063,0.99748 -55.49693,1.27914 -76.8086,0.69058 l -2.7e-4,0 z"
       id="path3356"
       inkscape:connector-curvature="0" />
    <path
       style="fill:#ff6600"
       d="m 246.9407,630.93376 c -15.36985,-1.06514 -41.75975,-3.69098 -51.8868,-5.16282 -5.18868,-0.7541 -11.98113,-1.62057 -15.09434,-1.92547 -3.1132,-0.30491 -7.99528,-1.00384 -10.84905,-1.55319 -2.85378,-0.54934 -10.07076,-1.77164 -16.03774,-2.71622 -15.95444,-2.5256 -30.46178,-5.16323 -32.07547,-5.83176 -0.7783,-0.32244 -4.59905,-1.08686 -8.49056,-1.69871 -3.89151,-0.61185 -7.5,-1.43972 -8.01887,-1.83972 -0.51887,-0.4 -4.12736,-1.24905 -8.018869,-1.88679 -3.89151,-0.63773 -7.5,-1.47188 -8.01887,-1.85364 -0.51886,-0.38176 -3.70283,-1.24574 -7.07547,-1.91994 -3.37264,-0.67421 -6.5566,-1.53122 -7.07547,-1.90447 -0.51887,-0.37325 -3.17217,-1.2011 -5.89623,-1.83967 l -4.95283,-1.16103 0,-14.04331 c 0,-7.72382 0.41932,-15.85366 0.93181,-18.06629 0.5125,-2.21263 1.5316,-8.90504 2.26468,-14.87203 1.56789,-12.76207 6.68085,-36.03042 9.32852,-42.45283 0.32086,-0.7783 1.71807,-4.81132 3.10491,-8.96226 1.38684,-4.15094 3.57036,-10.09434 4.85225,-13.20755 2.58029,-6.26648 14.50576,-30.85903 15.32537,-31.60377 0.73413,-0.66707 6.645289,-10.40877 6.645289,-10.95156 0,-0.24686 0.44427,-0.96157 0.98726,-1.58826 0.543,-0.62668 3.08406,-4.11112 5.6468,-7.7432 2.56275,-3.63207 5.40857,-7.63646 6.32406,-8.89862 2.60848,-3.59627 9.65612,-12.20658 11.89718,-14.53514 1.11732,-1.16094 3.88475,-4.30468 6.14984,-6.98609 l 4.11835,-4.87531 2.95712,3.51596 c 1.62642,1.93377 3.80618,4.40176 4.84392,5.48441 1.87425,1.95537 6.337,7.23413 11.46296,13.55894 1.47182,1.81604 3.10325,3.78089 3.6254,4.36633 0.52216,0.58544 1.91079,2.28356 3.08585,3.77359 1.17505,1.49002 4.88967,6.19058 8.25471,10.44567 3.36504,4.25509 6.11825,8.16088 6.11825,8.67953 0,0.51866 0.53134,1.2825 1.18076,1.69744 0.64942,0.41493 3.04119,3.51386 5.31505,6.8865 6.62164,9.82136 9.92974,14.50789 11.19287,15.85668 0.64858,0.69257 1.17924,1.6231 1.17924,2.06785 0,0.44474 0.58175,1.39036 1.29277,2.10138 0.71101,0.71102 1.99751,2.54559 2.85887,4.07682 0.86136,1.53123 2.38095,4.05765 3.37684,5.61425 8.74612,13.67032 30.20737,54.40601 30.20737,57.33672 0,0.34442 1.014,2.86759 2.25334,5.60702 1.23933,2.73943 2.54665,6.3605 2.90514,8.04683 0.3585,1.68632 0.99536,3.06603 1.41526,3.06603 0.41989,0 1.05812,1.59198 1.41827,3.53774 0.36016,1.94575 1.21915,4.81132 1.90887,6.36792 0.68972,1.55661 1.77147,5.1651 2.40389,8.01887 0.63243,2.85377 1.48141,5.61321 1.88664,6.13208 0.40521,0.51886 1.26815,4.55188 1.91763,8.96226 0.64947,4.41038 1.49302,8.4434 1.87455,8.96227 0.38152,0.51886 0.966,4.76415 1.29883,9.43396 0.33284,4.66981 0.84009,10.50707 1.12725,12.9717 0.39885,3.42326 0.22281,4.44378 -0.74567,4.32291 -0.69727,-0.087 -5.51306,-0.45242 -10.70173,-0.81201 z"
       id="path3358"
       inkscape:connector-curvature="0" />
    <path
       style="fill:#ff6600"
       d="m 169.5822,808.7259 c -15.4284,-11.12583 -37.71837,-33.82661 -51.45214,-52.40043 -3.60132,-4.87049 -6.87845,-9.27997 -7.2825,-9.79884 -0.40405,-0.51887 -2.09525,-3.06604 -3.75821,-5.66038 -1.66296,-2.59434 -3.40731,-5.17412 -3.87634,-5.73284 -0.46902,-0.55872 -1.14479,-1.93592 -1.5017,-3.06045 -0.35691,-1.12453 -1.16753,-2.57776 -1.801389,-3.22943 -1.67112,-1.71806 -14.14808,-27.39201 -17.08069,-35.14709 -1.37349,-3.63208 -2.88172,-7.45283 -3.35163,-8.49057 -0.46991,-1.03773 -1.33814,-3.79717 -1.92939,-6.13207 -0.59125,-2.33491 -1.41202,-4.66981 -1.82392,-5.18868 -0.4119,-0.51887 -1.2666,-3.49057 -1.89932,-6.60377 -0.63272,-3.11321 -1.42035,-6.08491 -1.75028,-6.60378 -1.11323,-1.75074 -4.00618,-16.90497 -5.40285,-28.30188 -0.76303,-6.22642 -1.74109,-12.91274 -2.17345,-14.85849 -0.68221,-3.0701 -0.5614,-3.53774 0.91393,-3.53774 0.93502,0 1.92703,0.36726 2.20445,0.81613 0.27741,0.44888 3.16804,1.31464 6.4236,1.92391 3.25556,0.60927 6.76825,1.49365 7.80599,1.9653 1.03774,0.47164 5.07075,1.54413 8.96226,2.3833 3.89151,0.83918 10.896229,2.38721 15.566039,3.44008 11.49912,2.59262 25.33354,5.31854 37.26415,7.3425 5.44811,0.92424 10.96698,1.96712 12.26415,2.3175 2.43138,0.65675 15.25561,2.37291 35.84906,4.79737 6.48584,0.76357 14.9427,1.82762 18.79301,2.36454 3.85032,0.53692 13.4022,1.40782 21.22642,1.93532 7.82422,0.5275 16.87915,1.19246 20.12208,1.4777 l 5.89622,0.5186 -0.0689,5.82114 c -0.0378,3.20163 -0.43396,7.94378 -0.88018,10.53812 -2.76994,16.10461 -3.91413,21.8605 -4.59456,23.11321 -0.42276,0.7783 -1.31587,3.70541 -1.98471,6.5047 -0.66883,2.79928 -1.79313,6.19551 -2.49843,7.54717 -0.70531,1.35166 -1.28761,3.09435 -1.294,3.87265 -0.007,0.77831 -0.59933,2.54151 -1.31764,3.91824 -0.71833,1.37673 -1.79711,3.99112 -2.39732,5.80976 -1.23251,3.73455 -9.49689,20.16532 -14.08745,28.00785 -4.60135,7.86098 -5.13637,8.72246 -7.43107,11.96536 -1.16876,1.6517 -2.12501,3.26416 -2.12501,3.58326 0,0.65386 -12.42402,17.17254 -16.61165,22.08645 -7.27546,8.53728 -17.32685,19.03237 -27.37063,28.57884 -3.35082,3.18491 -3.81826,3.36338 -5.54603,2.11744 z"
       id="path3360"
       inkscape:connector-curvature="0" />
    <path
       style="fill:#ff6600"
       d="m 533.70798,763.68034 c -7.90582,-6.26359 -21.06285,-20.11907 -27.56288,-29.02607 -5.7235,-7.84292 -15.10543,-27.22734 -19.13569,-39.5371 -4.97869,-15.20658 -7.5826,-28.99404 -9.82616,-52.02867 -0.56353,-5.78574 -0.043,-6.46753 4.93802,-6.46753 3.25503,0 46.13159,-6.95021 58.21565,-9.43664 5.18868,-1.06763 12.40566,-2.51819 16.03774,-3.22347 15.16247,-2.94425 34.69026,-7.17253 39.34758,-8.5198 2.74562,-0.79425 7.00855,-1.81775 9.47317,-2.27444 5.34269,-0.99001 5.10068,-2.39638 2.65615,15.43548 -3.02157,22.04116 -5.03149,30.5111 -12.51537,52.74088 -4.78395,14.21 -8.87113,23.78398 -15.74501,36.88176 -12.31172,23.45922 -32.09155,51.4151 -36.37812,51.4151 -1.0907,0 -5.36799,-2.68178 -9.50508,-5.9595 z"
       id="path3362"
       inkscape:connector-curvature="0" />
    <path
       style="fill:#ff6600"
       d=""
       id="path3364"
       inkscape:connector-curvature="0" />
    <path
       style="fill:#ff6600"
       d=""
       id="path3366"
       inkscape:connector-curvature="0" />
  </g>
  <g
     inkscape:label="Layer 1"
     inkscape:groupmode="layer"
     id="layer1">
    <text
       xml:space="preserve"
       style="font-style:normal;font-weight:normal;font-size:453.54446411px;line-height:125%;font-family:sans-serif;letter-spacing:0px;word-spacing:0px;fill:#ffff00;fill-opacity:1;stroke:none;stroke-width:1px;stroke-linecap:butt;stroke-linejoin:miter;stroke-opacity:1;"
       x="139.55463"
       y="841.7041"
       id="text3336"
       sodipodi:linespacing="125%"
       transform="scale(1.0147065,0.98550664)"><tspan
         sodipodi:role="line"
         id="tspan3338"
         x="139.55463"
         y="841.7041">1</tspan></text>
    <flowRoot
       xml:space="preserve"
       id="flowRoot3340"
       style="font-style:italic;font-variant:normal;font-weight:bold;font-stretch:normal;font-size:250px;line-height:125%;font-family:Calibri;-inkscape-font-specification:'Calibri Bold Italic';letter-spacing:0px;word-spacing:0px;fill:#aa00d4;fill-opacity:1;stroke:none;stroke-width:1px;stroke-linecap:butt;stroke-linejoin:miter;stroke-opacity:1;"
       transform="matrix(0.82840385,0,0,0.80854221,-41.212243,388.92705)"><flowRegion
         id="flowRegion3342"><rect
           id="rect3344"
           width="285.71429"
           height="328.57144"
           x="462.85715"
           y="92.362206"
           style="font-style:italic;font-variant:normal;font-weight:bold;font-stretch:normal;font-size:250px;font-family:Calibri;-inkscape-font-specification:'Calibri Bold Italic';fill:#aa00d4;" /></flowRegion><flowPara
         id="flowPara3346">st</flowPara></flowRoot>    <flowRoot
       xml:space="preserve"
       id="flowRoot3348"
       style="font-style:normal;font-weight:normal;font-size:625px;line-height:125%;font-family:sans-serif;letter-spacing:0px;word-spacing:0px;fill:#000000;fill-opacity:1;stroke:none;stroke-width:1px;stroke-linecap:butt;stroke-linejoin:miter;stroke-opacity:1"><flowRegion
         id="flowRegion3350"><rect
           id="rect3352"
           width="665.71429"
           height="262.85715"
           x="28.571428"
           y="412.36221"
           style="font-size:625px" /></flowRegion><flowPara
         id="flowPara3354">T</flowPara></flowRoot>    <flowRoot
       xml:space="preserve"
       id="flowRoot3356"
       style="fill:black;stroke:none;stroke-opacity:1;stroke-width:1px;stroke-linejoin:miter;stroke-linecap:butt;fill-opacity:1;font-family:sans-serif;font-style:normal;font-weight:normal;font-size:50px;line-height:125%;letter-spacing:0px;word-spacing:0px"><flowRegion
         id="flowRegion3358"><rect
           id="rect3360"
           width="708.57141"
           height="205.71428"
           x="-17.142857"
           y="355.21936" /></flowRegion><flowPara
         id="flowPara3362" /></flowRoot>    <text
       xml:space="preserve"
       style="font-style:normal;font-variant:normal;font-weight:normal;font-stretch:normal;font-size:218.28294373px;line-height:125%;font-family:Elephant;-inkscape-font-specification:Elephant;letter-spacing:0px;word-spacing:0px;fill:#ab37c8;fill-opacity:1;stroke:none;stroke-width:1px;stroke-linecap:butt;stroke-linejoin:miter;stroke-opacity:1;"
       x="14.807138"
       y="424.99829"
       id="text3364"
       sodipodi:linespacing="125%"
       transform="scale(0.97014645,1.0307722)"><tspan
         sodipodi:role="line"
         id="tspan3366"
         x="14.807138"
         y="424.99829">TEAM</tspan></text>
    <path
       style="fill:#ffffff"
       d="m 1224.3848,-286.74543 0,80 -117.1429,0 -117.14285,0 0,-80 0,-80 117.14285,0 117.1429,0 0,80 z m -170.3888,-57.10826 c -36.4293,16.32576 -53.0788,35.7008 -52.8803,61.53692 0.345,44.89505 65.202,79.21803 129.3275,68.44145 69.7841,-11.72755 102.5391,-63.91448 66.1087,-105.32771 -10.8678,-12.35418 -23.3536,-19.95929 -29.0265,-17.68 -1.4328,0.57568 -6.036,-2.08478 -10.2293,-5.91212 -14.2715,-13.0261 -75.2024,-13.65048 -103.3001,-1.05854 z"
       id="path3390"
       inkscape:connector-curvature="0" />
    <path
       style="fill:#ffffff"
       d="m 672.95619,498.96885 0,-62.85714 61.42861,0 61.4285,0 0,62.85714 0,62.85715 -61.4285,0 -61.42861,0 0,-62.85715 z m 89.35021,44.87078 c 19.1032,-12.82737 27.834,-28.05063 27.7299,-48.35044 -0.1809,-35.27467 -34.1913,-62.24274 -67.8181,-53.77542 -36.59408,9.2145 -53.7705,50.21853 -34.66672,82.75748 5.69895,9.70687 12.2464,15.68231 15.22122,13.89143 0.7513,-0.45232 3.1652,1.63804 5.3641,4.64524 7.4839,10.2348 39.4354,10.72537 54.1696,0.83171 z"
       id="path3392"
       inkscape:connector-curvature="0" />
    <path
       style="fill:#ffffff"
       d="m 955.81333,-321.03115 0,-237.14285 254.28577,0 254.2857,0 0,237.14285 0,237.142861 -254.2857,0 -254.28577,0 0,-237.142861 z m 297.14287,194.35389 c 0.7857,-1.14569 8.2303,-2.96657 16.5436,-4.04643 14.0013,-1.81871 28.6385,-6.55754 32.0278,-10.36911 0.7857,-0.8836 6.8929,-3.36558 13.5715,-5.51549 6.6785,-2.14989 12.1428,-4.98883 12.1428,-6.30874 0,-1.31992 1.9177,-2.39983 4.2615,-2.39983 2.3439,0 5.8674,-2.57143 7.8301,-5.71429 1.9628,-3.14285 5.1447,-5.71428 7.071,-5.71428 5.3104,0 38.224,-30.4214 46.5517,-43.02683 2.3571,-3.56794 6.4088,-8.7196 9.0037,-11.44812 2.5948,-2.72851 5.6573,-7.92077 6.8055,-11.53831 1.1481,-3.61754 3.7292,-8.219 5.7356,-10.22543 2.0065,-2.00646 4.5213,-8.8164 5.5885,-15.13326 1.0672,-6.31685 3.0688,-11.4852 4.448,-11.4852 1.3792,0 3.3604,-6.42857 4.4027,-14.28571 1.0423,-7.85714 3.0151,-14.28571 4.3841,-14.28571 1.369,0 2.489,-13.5 2.489,-30 0,-16.5 -1.1196,-30 -2.488,-30 -1.3685,0 -3.3609,-7.71429 -4.4276,-17.14286 -1.0668,-9.42857 -2.8948,-17.14286 -4.0622,-17.14286 -1.1675,0 -3.6702,-5.78571 -5.5615,-12.85714 -1.8913,-7.07143 -4.7294,-12.85714 -6.3068,-12.85714 -1.5775,0 -2.8681,-1.83674 -2.8681,-4.08164 0,-2.2449 -1.6072,-5.78061 -3.5715,-7.85714 -1.9643,-2.07653 -5.5,-7.56394 -7.8571,-12.19424 -2.3572,-4.6303 -8.1429,-12.55167 -12.8572,-17.60306 -4.7142,-5.05138 -9.9537,-10.90581 -11.6432,-13.00984 -1.6895,-2.10403 -6.678,-6.39694 -11.0856,-9.5398 -4.4076,-3.14286 -11.1854,-8.54852 -15.062,-12.01258 -3.8764,-3.46406 -11.4236,-7.74234 -16.7715,-9.50729 -5.3479,-1.76495 -9.7234,-4.18921 -9.7234,-5.38725 0,-1.19804 -5.1428,-3.87555 -11.4285,-5.95002 -6.2858,-2.07447 -11.4286,-4.70611 -11.4286,-5.84808 0,-1.14198 -8.3572,-3.6532 -18.5714,-5.58049 -10.2143,-1.9273 -18.5715,-4.64431 -18.5715,-6.03781 0,-1.39349 -3.9306,-2.53362 -8.7348,-2.53362 -4.8041,0 -14.6429,-1.48768 -21.8639,-3.30595 -10.1636,-2.55922 -19.323,-2.4648 -40.5509,0.41805 -15.082,2.0482 -28.0647,4.53579 -28.8504,5.52799 -0.7857,0.99219 -9.0553,3.35668 -18.3769,5.25442 -9.3217,1.89773 -17.6788,4.59343 -18.5715,5.99044 -0.8926,1.397 -5.8885,3.46563 -11.1018,4.59695 -5.2133,1.13131 -10.1421,3.7857 -10.9529,5.89864 -0.8109,2.11294 -5.2853,4.67875 -9.9432,5.70181 -4.658,1.02305 -10.0027,4.31591 -11.8772,7.31745 -1.8745,3.00154 -4.9398,5.45734 -6.8119,5.45734 -4.2359,0 -35.2217,29.25417 -35.2217,33.25334 0,1.60816 -3.0185,4.53934 -6.7076,6.51373 -3.6892,1.9744 -8.4292,7.97737 -10.5333,13.33994 -2.1041,5.36257 -4.732,9.75013 -5.8398,9.75013 -1.1078,0 -2.8209,3.21429 -3.8069,7.14286 -0.986,3.92857 -2.8935,7.14286 -4.2388,7.14286 -1.3453,0 -4.1575,7.71428 -6.2492,17.14286 -2.09174,9.42857 -4.65933,17.14285 -5.70576,17.14285 -1.04644,0 -2.72499,5.14286 -3.73012,11.42857 -1.00513,6.28572 -3.09802,11.42858 -4.65088,11.42858 -3.93483,0 -3.72198,53.50998 0.21808,54.82334 1.6728,0.5576 3.77066,6.45045 4.66191,13.09524 0.89125,6.64478 2.53228,12.08142 3.64674,12.08142 1.11446,0 3.60881,7.07142 5.54303,15.71428 1.9342,8.64286 4.6857,15.71429 6.1145,15.71429 1.4288,0 3.4045,3.21428 4.3905,7.14285 0.986,3.92858 2.9391,7.14286 4.3402,7.14286 1.401,0 2.5474,1.92857 2.5474,4.28572 0,2.35714 2.5714,6.85714 5.7143,10 3.1428,3.14285 5.7365,6.67857 5.7636,7.85714 0.027,1.17857 3.2414,5.17066 7.1429,8.87131 3.9014,3.70066 7.0935,8.30483 7.0935,10.23149 0,1.92666 3.4966,5.32743 7.7703,7.55726 4.2737,2.22982 9.8346,5.9828 12.3576,8.33994 10.428,9.74248 21.6879,17.45237 27.7292,18.98674 3.5357,0.898 6.4286,2.62309 6.4286,3.83352 0,1.21042 4.1786,3.89091 9.2857,5.95662 5.1071,2.06572 9.9286,4.62 10.7143,5.67618 1.671,2.24628 36.6974,11.26122 43.7539,11.26122 2.6497,0 4.8175,1.22438 4.8175,2.7208 0,5.10609 82.2182,5.30226 85.7143,0.20458 l 0,-6e-5 z"
       id="path3396"
       inkscape:connector-curvature="0" />
  </g>
</svg>
